<mxfile host="app.diagrams.net" agent="Mozilla/5.0 (Windows NT 10.0; Win64; x64; rv:133.0) Gecko/20100101 Firefox/133.0" version="25.0.1">
  <diagram id="C5RBs43oDa-KdzZeNtuy" name="Page-1">
    <mxGraphModel dx="4089" dy="865" grid="1" gridSize="10" guides="1" tooltips="1" connect="1" arrows="1" fold="1" page="1" pageScale="1" pageWidth="2339" pageHeight="3300" math="0" shadow="0">
      <root>
        <mxCell id="WIyWlLk6GJQsqaUBKTNV-0" />
        <mxCell id="WIyWlLk6GJQsqaUBKTNV-1" parent="WIyWlLk6GJQsqaUBKTNV-0" />
        <mxCell id="zkfFHV4jXpPFQw0GAbJ--12" value="" style="endArrow=block;endSize=10;endFill=0;shadow=0;strokeWidth=1;rounded=0;curved=0;edgeStyle=elbowEdgeStyle;elbow=vertical;exitX=0.75;exitY=0;exitDx=0;exitDy=0;entryX=0.438;entryY=1.031;entryDx=0;entryDy=0;entryPerimeter=0;" parent="WIyWlLk6GJQsqaUBKTNV-1" source="QisyYEOGhZmKc4R2BYfi-0" target="GFZbav0f2nHTLZzMXN7z-3" edge="1">
          <mxGeometry width="160" relative="1" as="geometry">
            <mxPoint x="200.0000000000001" y="360" as="sourcePoint" />
            <mxPoint x="299.84000000000015" y="280.078" as="targetPoint" />
            <Array as="points">
              <mxPoint x="300" y="360" />
            </Array>
          </mxGeometry>
        </mxCell>
        <mxCell id="QisyYEOGhZmKc4R2BYfi-0" value="Employee" style="swimlane;fontStyle=2;align=center;verticalAlign=top;childLayout=stackLayout;horizontal=1;startSize=26;horizontalStack=0;resizeParent=1;resizeLast=0;collapsible=1;marginBottom=0;rounded=0;shadow=0;strokeWidth=1;" parent="WIyWlLk6GJQsqaUBKTNV-1" vertex="1">
          <mxGeometry x="120" y="460" width="160" height="130" as="geometry">
            <mxRectangle x="230" y="140" width="160" height="26" as="alternateBounds" />
          </mxGeometry>
        </mxCell>
        <mxCell id="QisyYEOGhZmKc4R2BYfi-1" value="# EmployeeID: int" style="text;align=left;verticalAlign=top;spacingLeft=4;spacingRight=4;overflow=hidden;rotatable=0;points=[[0,0.5],[1,0.5]];portConstraint=eastwest;" parent="QisyYEOGhZmKc4R2BYfi-0" vertex="1">
          <mxGeometry y="26" width="160" height="26" as="geometry" />
        </mxCell>
        <mxCell id="QisyYEOGhZmKc4R2BYfi-2" value="# Date_Joined: string" style="text;align=left;verticalAlign=top;spacingLeft=4;spacingRight=4;overflow=hidden;rotatable=0;points=[[0,0.5],[1,0.5]];portConstraint=eastwest;rounded=0;shadow=0;html=0;" parent="QisyYEOGhZmKc4R2BYfi-0" vertex="1">
          <mxGeometry y="52" width="160" height="28" as="geometry" />
        </mxCell>
        <mxCell id="GFZbav0f2nHTLZzMXN7z-4" value="# Position: string" style="text;align=left;verticalAlign=top;spacingLeft=4;spacingRight=4;overflow=hidden;rotatable=0;points=[[0,0.5],[1,0.5]];portConstraint=eastwest;rounded=0;shadow=0;html=0;" vertex="1" parent="QisyYEOGhZmKc4R2BYfi-0">
          <mxGeometry y="80" width="160" height="28" as="geometry" />
        </mxCell>
        <mxCell id="QisyYEOGhZmKc4R2BYfi-6" value="Receptionist " style="swimlane;fontStyle=2;align=center;verticalAlign=top;childLayout=stackLayout;horizontal=1;startSize=26;horizontalStack=0;resizeParent=1;resizeLast=0;collapsible=1;marginBottom=0;rounded=0;shadow=0;strokeWidth=1;" parent="WIyWlLk6GJQsqaUBKTNV-1" vertex="1">
          <mxGeometry x="420" y="770" width="160" height="120" as="geometry">
            <mxRectangle x="230" y="140" width="160" height="26" as="alternateBounds" />
          </mxGeometry>
        </mxCell>
        <mxCell id="QisyYEOGhZmKc4R2BYfi-11" value="+ reserveTable(): void&#xa;&#xa;+ updateTable(): void&#xa;&#xa;+ cancelReservation(): void&#xa;" style="text;align=left;verticalAlign=top;spacingLeft=4;spacingRight=4;overflow=hidden;rotatable=0;points=[[0,0.5],[1,0.5]];portConstraint=eastwest;" parent="QisyYEOGhZmKc4R2BYfi-6" vertex="1">
          <mxGeometry y="26" width="160" height="94" as="geometry" />
        </mxCell>
        <mxCell id="QisyYEOGhZmKc4R2BYfi-12" value="Chef " style="swimlane;fontStyle=2;align=center;verticalAlign=top;childLayout=stackLayout;horizontal=1;startSize=26;horizontalStack=0;resizeParent=1;resizeLast=0;collapsible=1;marginBottom=0;rounded=0;shadow=0;strokeWidth=1;" parent="WIyWlLk6GJQsqaUBKTNV-1" vertex="1">
          <mxGeometry x="700" y="770" width="160" height="90" as="geometry">
            <mxRectangle x="230" y="140" width="160" height="26" as="alternateBounds" />
          </mxGeometry>
        </mxCell>
        <mxCell id="QisyYEOGhZmKc4R2BYfi-13" value="+ updateOrder(): void&#xa;&#xa;+ viewDeliveryOrders(): void&#xa;&#xa;" style="text;align=left;verticalAlign=top;spacingLeft=4;spacingRight=4;overflow=hidden;rotatable=0;points=[[0,0.5],[1,0.5]];portConstraint=eastwest;" parent="QisyYEOGhZmKc4R2BYfi-12" vertex="1">
          <mxGeometry y="26" width="160" height="64" as="geometry" />
        </mxCell>
        <mxCell id="QisyYEOGhZmKc4R2BYfi-18" value="Cashier " style="swimlane;fontStyle=2;align=center;verticalAlign=top;childLayout=stackLayout;horizontal=1;startSize=26;horizontalStack=0;resizeParent=1;resizeLast=0;collapsible=1;marginBottom=0;rounded=0;shadow=0;strokeWidth=1;" parent="WIyWlLk6GJQsqaUBKTNV-1" vertex="1">
          <mxGeometry x="970" y="770" width="160" height="60" as="geometry">
            <mxRectangle x="230" y="140" width="160" height="26" as="alternateBounds" />
          </mxGeometry>
        </mxCell>
        <mxCell id="QisyYEOGhZmKc4R2BYfi-23" value="+ ProcessPayment(): void" style="text;align=left;verticalAlign=top;spacingLeft=4;spacingRight=4;overflow=hidden;rotatable=0;points=[[0,0.5],[1,0.5]];portConstraint=eastwest;" parent="QisyYEOGhZmKc4R2BYfi-18" vertex="1">
          <mxGeometry y="26" width="160" height="34" as="geometry" />
        </mxCell>
        <mxCell id="QisyYEOGhZmKc4R2BYfi-24" value="Bar tender" style="swimlane;fontStyle=2;align=center;verticalAlign=top;childLayout=stackLayout;horizontal=1;startSize=26;horizontalStack=0;resizeParent=1;resizeLast=0;collapsible=1;marginBottom=0;rounded=0;shadow=0;strokeWidth=1;" parent="WIyWlLk6GJQsqaUBKTNV-1" vertex="1">
          <mxGeometry x="1241" y="770" width="160" height="80" as="geometry">
            <mxRectangle x="230" y="140" width="160" height="26" as="alternateBounds" />
          </mxGeometry>
        </mxCell>
        <mxCell id="QisyYEOGhZmKc4R2BYfi-29" value="+ updateOrderQueue(): void" style="text;align=left;verticalAlign=top;spacingLeft=4;spacingRight=4;overflow=hidden;rotatable=0;points=[[0,0.5],[1,0.5]];portConstraint=eastwest;" parent="QisyYEOGhZmKc4R2BYfi-24" vertex="1">
          <mxGeometry y="26" width="160" height="48" as="geometry" />
        </mxCell>
        <mxCell id="QisyYEOGhZmKc4R2BYfi-34" value="General Manager" style="swimlane;fontStyle=2;align=center;verticalAlign=top;childLayout=stackLayout;horizontal=1;startSize=26;horizontalStack=0;resizeParent=1;resizeLast=0;collapsible=1;marginBottom=0;rounded=0;shadow=0;strokeWidth=1;" parent="WIyWlLk6GJQsqaUBKTNV-1" vertex="1">
          <mxGeometry x="117" y="770" width="160" height="60" as="geometry">
            <mxRectangle x="230" y="140" width="160" height="26" as="alternateBounds" />
          </mxGeometry>
        </mxCell>
        <mxCell id="XL019JOikX7IZcnnbQnU-81" value="+ updateEmployee(): void" style="text;html=1;align=left;verticalAlign=middle;resizable=0;points=[];autosize=1;strokeColor=none;fillColor=none;" parent="QisyYEOGhZmKc4R2BYfi-34" vertex="1">
          <mxGeometry y="26" width="160" height="30" as="geometry" />
        </mxCell>
        <mxCell id="QisyYEOGhZmKc4R2BYfi-40" value="" style="endArrow=block;endSize=10;endFill=0;shadow=0;strokeWidth=1;rounded=0;curved=0;edgeStyle=elbowEdgeStyle;elbow=vertical;exitX=0.5;exitY=0;exitDx=0;exitDy=0;" parent="WIyWlLk6GJQsqaUBKTNV-1" source="QisyYEOGhZmKc4R2BYfi-6" edge="1">
          <mxGeometry width="160" relative="1" as="geometry">
            <mxPoint x="208" y="750" as="sourcePoint" />
            <mxPoint x="200" y="590" as="targetPoint" />
            <Array as="points">
              <mxPoint x="208" y="710" />
            </Array>
          </mxGeometry>
        </mxCell>
        <mxCell id="QisyYEOGhZmKc4R2BYfi-41" value="" style="endArrow=block;endSize=10;endFill=0;shadow=0;strokeWidth=1;rounded=0;curved=0;edgeStyle=elbowEdgeStyle;elbow=vertical;exitX=0.519;exitY=0.002;exitDx=0;exitDy=0;exitPerimeter=0;" parent="WIyWlLk6GJQsqaUBKTNV-1" source="QisyYEOGhZmKc4R2BYfi-34" edge="1">
          <mxGeometry width="160" relative="1" as="geometry">
            <mxPoint x="510" y="750" as="sourcePoint" />
            <mxPoint x="200" y="590" as="targetPoint" />
            <Array as="points">
              <mxPoint x="218" y="720" />
            </Array>
          </mxGeometry>
        </mxCell>
        <mxCell id="QisyYEOGhZmKc4R2BYfi-42" value="" style="endArrow=block;endSize=10;endFill=0;shadow=0;strokeWidth=1;rounded=0;curved=0;edgeStyle=elbowEdgeStyle;elbow=vertical;exitX=0.5;exitY=0;exitDx=0;exitDy=0;" parent="WIyWlLk6GJQsqaUBKTNV-1" source="QisyYEOGhZmKc4R2BYfi-12" edge="1">
          <mxGeometry width="160" relative="1" as="geometry">
            <mxPoint x="780" y="730" as="sourcePoint" />
            <mxPoint x="200" y="590" as="targetPoint" />
            <Array as="points">
              <mxPoint x="218" y="710" />
            </Array>
          </mxGeometry>
        </mxCell>
        <mxCell id="QisyYEOGhZmKc4R2BYfi-43" value="" style="endArrow=block;endSize=10;endFill=0;shadow=0;strokeWidth=1;rounded=0;curved=0;edgeStyle=elbowEdgeStyle;elbow=vertical;exitX=0.5;exitY=0;exitDx=0;exitDy=0;" parent="WIyWlLk6GJQsqaUBKTNV-1" source="QisyYEOGhZmKc4R2BYfi-18" edge="1">
          <mxGeometry width="160" relative="1" as="geometry">
            <mxPoint x="1050" y="720" as="sourcePoint" />
            <mxPoint x="200" y="590" as="targetPoint" />
            <Array as="points">
              <mxPoint x="228" y="710" />
            </Array>
          </mxGeometry>
        </mxCell>
        <mxCell id="QisyYEOGhZmKc4R2BYfi-49" value="Waiter" style="swimlane;fontStyle=2;align=center;verticalAlign=top;childLayout=stackLayout;horizontal=1;startSize=26;horizontalStack=0;resizeParent=1;resizeLast=0;collapsible=1;marginBottom=0;rounded=0;shadow=0;strokeWidth=1;" parent="WIyWlLk6GJQsqaUBKTNV-1" vertex="1">
          <mxGeometry x="1500" y="770" width="160" height="110" as="geometry">
            <mxRectangle x="230" y="140" width="160" height="26" as="alternateBounds" />
          </mxGeometry>
        </mxCell>
        <mxCell id="QisyYEOGhZmKc4R2BYfi-54" value="+ addOrder(): void&#xa;&#xa;+ updateOrder(): void&#xa;&#xa;+ deleteOrder(): void&#xa;" style="text;align=left;verticalAlign=top;spacingLeft=4;spacingRight=4;overflow=hidden;rotatable=0;points=[[0,0.5],[1,0.5]];portConstraint=eastwest;" parent="QisyYEOGhZmKc4R2BYfi-49" vertex="1">
          <mxGeometry y="26" width="160" height="84" as="geometry" />
        </mxCell>
        <mxCell id="QisyYEOGhZmKc4R2BYfi-55" value="Delivery Driver" style="swimlane;fontStyle=2;align=center;verticalAlign=top;childLayout=stackLayout;horizontal=1;startSize=26;horizontalStack=0;resizeParent=1;resizeLast=0;collapsible=1;marginBottom=0;rounded=0;shadow=0;strokeWidth=1;" parent="WIyWlLk6GJQsqaUBKTNV-1" vertex="1">
          <mxGeometry x="1760" y="770" width="160" height="110" as="geometry">
            <mxRectangle x="230" y="140" width="160" height="26" as="alternateBounds" />
          </mxGeometry>
        </mxCell>
        <mxCell id="QisyYEOGhZmKc4R2BYfi-60" value="+ getStatus(): void" style="text;align=left;verticalAlign=top;spacingLeft=4;spacingRight=4;overflow=hidden;rotatable=0;points=[[0,0.5],[1,0.5]];portConstraint=eastwest;" parent="QisyYEOGhZmKc4R2BYfi-55" vertex="1">
          <mxGeometry y="26" width="160" height="84" as="geometry" />
        </mxCell>
        <mxCell id="QisyYEOGhZmKc4R2BYfi-61" value="Customer" style="swimlane;fontStyle=2;align=center;verticalAlign=top;childLayout=stackLayout;horizontal=1;startSize=26;horizontalStack=0;resizeParent=1;resizeLast=0;collapsible=1;marginBottom=0;rounded=0;shadow=0;strokeWidth=1;" parent="WIyWlLk6GJQsqaUBKTNV-1" vertex="1">
          <mxGeometry x="440" y="445" width="160" height="115" as="geometry">
            <mxRectangle x="230" y="140" width="160" height="26" as="alternateBounds" />
          </mxGeometry>
        </mxCell>
        <mxCell id="QisyYEOGhZmKc4R2BYfi-62" value="+ customerID: int" style="text;align=left;verticalAlign=top;spacingLeft=4;spacingRight=4;overflow=hidden;rotatable=0;points=[[0,0.5],[1,0.5]];portConstraint=eastwest;" parent="QisyYEOGhZmKc4R2BYfi-61" vertex="1">
          <mxGeometry y="26" width="160" height="26" as="geometry" />
        </mxCell>
        <mxCell id="QisyYEOGhZmKc4R2BYfi-65" value="" style="line;html=1;strokeWidth=1;align=left;verticalAlign=middle;spacingTop=-1;spacingLeft=3;spacingRight=3;rotatable=0;labelPosition=right;points=[];portConstraint=eastwest;" parent="QisyYEOGhZmKc4R2BYfi-61" vertex="1">
          <mxGeometry y="52" width="160" height="8" as="geometry" />
        </mxCell>
        <mxCell id="GFZbav0f2nHTLZzMXN7z-22" value="0..1" style="resizable=0;align=left;verticalAlign=bottom;labelBackgroundColor=none;fontSize=12;" connectable="0" vertex="1" parent="QisyYEOGhZmKc4R2BYfi-61">
          <mxGeometry y="60" width="160" as="geometry" />
        </mxCell>
        <mxCell id="QisyYEOGhZmKc4R2BYfi-66" value="+ getCustomer(): Customer" style="text;align=left;verticalAlign=top;spacingLeft=4;spacingRight=4;overflow=hidden;rotatable=0;points=[[0,0.5],[1,0.5]];portConstraint=eastwest;" parent="QisyYEOGhZmKc4R2BYfi-61" vertex="1">
          <mxGeometry y="60" width="160" height="48" as="geometry" />
        </mxCell>
        <mxCell id="QisyYEOGhZmKc4R2BYfi-68" value="" style="endArrow=block;endSize=10;endFill=0;shadow=0;strokeWidth=1;rounded=0;curved=0;edgeStyle=elbowEdgeStyle;elbow=vertical;exitX=0.5;exitY=0;exitDx=0;exitDy=0;entryX=0.548;entryY=1.012;entryDx=0;entryDy=0;entryPerimeter=0;" parent="WIyWlLk6GJQsqaUBKTNV-1" source="QisyYEOGhZmKc4R2BYfi-61" target="GFZbav0f2nHTLZzMXN7z-3" edge="1">
          <mxGeometry width="160" relative="1" as="geometry">
            <mxPoint x="220" y="480" as="sourcePoint" />
            <mxPoint x="317.7600000000002" y="278.6740000000001" as="targetPoint" />
            <Array as="points">
              <mxPoint x="420" y="360" />
            </Array>
          </mxGeometry>
        </mxCell>
        <mxCell id="QisyYEOGhZmKc4R2BYfi-69" value="" style="endArrow=block;endSize=10;endFill=0;shadow=0;strokeWidth=1;rounded=0;curved=0;edgeStyle=elbowEdgeStyle;elbow=vertical;exitX=0.5;exitY=0;exitDx=0;exitDy=0;entryX=0.5;entryY=1;entryDx=0;entryDy=0;" parent="WIyWlLk6GJQsqaUBKTNV-1" source="QisyYEOGhZmKc4R2BYfi-24" target="QisyYEOGhZmKc4R2BYfi-0" edge="1">
          <mxGeometry width="160" relative="1" as="geometry">
            <mxPoint x="1060" y="750" as="sourcePoint" />
            <mxPoint x="210" y="600" as="targetPoint" />
            <Array as="points">
              <mxPoint x="1230" y="710" />
              <mxPoint x="238" y="720" />
            </Array>
          </mxGeometry>
        </mxCell>
        <mxCell id="QisyYEOGhZmKc4R2BYfi-70" value="" style="endArrow=block;endSize=10;endFill=0;shadow=0;strokeWidth=1;rounded=0;curved=0;edgeStyle=elbowEdgeStyle;elbow=vertical;exitX=0.5;exitY=0;exitDx=0;exitDy=0;entryX=0.5;entryY=1;entryDx=0;entryDy=0;" parent="WIyWlLk6GJQsqaUBKTNV-1" source="QisyYEOGhZmKc4R2BYfi-49" target="QisyYEOGhZmKc4R2BYfi-0" edge="1">
          <mxGeometry width="160" relative="1" as="geometry">
            <mxPoint x="1070" y="760" as="sourcePoint" />
            <mxPoint x="220" y="610" as="targetPoint" />
            <Array as="points">
              <mxPoint x="890" y="710" />
            </Array>
          </mxGeometry>
        </mxCell>
        <mxCell id="QisyYEOGhZmKc4R2BYfi-72" value="" style="endArrow=block;endSize=10;endFill=0;shadow=0;strokeWidth=1;rounded=0;curved=0;edgeStyle=elbowEdgeStyle;elbow=vertical;exitX=0.5;exitY=0;exitDx=0;exitDy=0;entryX=0.5;entryY=1;entryDx=0;entryDy=0;" parent="WIyWlLk6GJQsqaUBKTNV-1" source="QisyYEOGhZmKc4R2BYfi-55" target="QisyYEOGhZmKc4R2BYfi-0" edge="1">
          <mxGeometry width="160" relative="1" as="geometry">
            <mxPoint x="1090" y="780" as="sourcePoint" />
            <mxPoint x="230" y="620" as="targetPoint" />
            <Array as="points">
              <mxPoint x="670" y="710" />
            </Array>
          </mxGeometry>
        </mxCell>
        <mxCell id="XL019JOikX7IZcnnbQnU-0" value="Order" style="swimlane;fontStyle=2;align=center;verticalAlign=top;childLayout=stackLayout;horizontal=1;startSize=26;horizontalStack=0;resizeParent=1;resizeLast=0;collapsible=1;marginBottom=0;rounded=0;shadow=0;strokeWidth=1;" parent="WIyWlLk6GJQsqaUBKTNV-1" vertex="1">
          <mxGeometry x="970" y="400" width="160" height="270" as="geometry">
            <mxRectangle x="230" y="140" width="160" height="26" as="alternateBounds" />
          </mxGeometry>
        </mxCell>
        <mxCell id="XL019JOikX7IZcnnbQnU-1" value="+ OrderID: int &#xa;&#xa;+ CustomerID: int&#xa;&#xa;+ OrderStatus: string&#xa;&#xa;+ OrderType: string&#xa;&#xa;+ OrderDate: date&#xa;" style="text;align=left;verticalAlign=top;spacingLeft=4;spacingRight=4;overflow=hidden;rotatable=0;points=[[0,0.5],[1,0.5]];portConstraint=eastwest;" parent="XL019JOikX7IZcnnbQnU-0" vertex="1">
          <mxGeometry y="26" width="160" height="144" as="geometry" />
        </mxCell>
        <mxCell id="XL019JOikX7IZcnnbQnU-2" value="" style="line;html=1;strokeWidth=1;align=left;verticalAlign=middle;spacingTop=-1;spacingLeft=3;spacingRight=3;rotatable=0;labelPosition=right;points=[];portConstraint=eastwest;" parent="XL019JOikX7IZcnnbQnU-0" vertex="1">
          <mxGeometry y="170" width="160" height="8" as="geometry" />
        </mxCell>
        <mxCell id="XL019JOikX7IZcnnbQnU-3" value="+ checkStatus(): string&#xa;&#xa;+ addItem(): void&#xa;&#xa;+ deleteItem(): void&#xa;" style="text;align=left;verticalAlign=top;spacingLeft=4;spacingRight=4;overflow=hidden;rotatable=0;points=[[0,0.5],[1,0.5]];portConstraint=eastwest;" parent="XL019JOikX7IZcnnbQnU-0" vertex="1">
          <mxGeometry y="178" width="160" height="92" as="geometry" />
        </mxCell>
        <mxCell id="XL019JOikX7IZcnnbQnU-4" value="Payment" style="swimlane;fontStyle=2;align=center;verticalAlign=top;childLayout=stackLayout;horizontal=1;startSize=26;horizontalStack=0;resizeParent=1;resizeLast=0;collapsible=1;marginBottom=0;rounded=0;shadow=0;strokeWidth=1;" parent="WIyWlLk6GJQsqaUBKTNV-1" vertex="1">
          <mxGeometry x="1040" y="174" width="170" height="158" as="geometry">
            <mxRectangle x="230" y="140" width="160" height="26" as="alternateBounds" />
          </mxGeometry>
        </mxCell>
        <mxCell id="XL019JOikX7IZcnnbQnU-5" value="+ PaymentStatus: string&#xa;&#xa;+ PaymentMethod: string&#xa;&#xa;+ TransactionID: int&#xa;" style="text;align=left;verticalAlign=top;spacingLeft=4;spacingRight=4;overflow=hidden;rotatable=0;points=[[0,0.5],[1,0.5]];portConstraint=eastwest;" parent="XL019JOikX7IZcnnbQnU-4" vertex="1">
          <mxGeometry y="26" width="170" height="84" as="geometry" />
        </mxCell>
        <mxCell id="XL019JOikX7IZcnnbQnU-6" value="" style="line;html=1;strokeWidth=1;align=left;verticalAlign=middle;spacingTop=-1;spacingLeft=3;spacingRight=3;rotatable=0;labelPosition=right;points=[];portConstraint=eastwest;" parent="XL019JOikX7IZcnnbQnU-4" vertex="1">
          <mxGeometry y="110" width="170" height="8" as="geometry" />
        </mxCell>
        <mxCell id="XL019JOikX7IZcnnbQnU-12" value="&lt;div align=&quot;left&quot;&gt;+ InitiateTransaction(): bool&lt;br&gt;&lt;/div&gt;" style="text;html=1;align=left;verticalAlign=middle;resizable=0;points=[];autosize=1;strokeColor=none;fillColor=none;" parent="XL019JOikX7IZcnnbQnU-4" vertex="1">
          <mxGeometry y="118" width="170" height="30" as="geometry" />
        </mxCell>
        <mxCell id="XL019JOikX7IZcnnbQnU-8" value="Account" style="swimlane;fontStyle=2;align=center;verticalAlign=top;childLayout=stackLayout;horizontal=1;startSize=26;horizontalStack=0;resizeParent=1;resizeLast=0;collapsible=1;marginBottom=0;rounded=0;shadow=0;strokeWidth=1;" parent="WIyWlLk6GJQsqaUBKTNV-1" vertex="1">
          <mxGeometry x="780" y="128" width="160" height="210" as="geometry">
            <mxRectangle x="780" y="128" width="160" height="26" as="alternateBounds" />
          </mxGeometry>
        </mxCell>
        <mxCell id="XL019JOikX7IZcnnbQnU-9" value="# id: int&#xa;&#xa;# username: string&#xa;&#xa;# password: string&#xa;&#xa;# status: status&#xa;" style="text;align=left;verticalAlign=top;spacingLeft=4;spacingRight=4;overflow=hidden;rotatable=0;points=[[0,0.5],[1,0.5]];portConstraint=eastwest;" parent="XL019JOikX7IZcnnbQnU-8" vertex="1">
          <mxGeometry y="26" width="160" height="114" as="geometry" />
        </mxCell>
        <mxCell id="XL019JOikX7IZcnnbQnU-10" value="" style="line;html=1;strokeWidth=1;align=left;verticalAlign=middle;spacingTop=-1;spacingLeft=3;spacingRight=3;rotatable=0;labelPosition=right;points=[];portConstraint=eastwest;" parent="XL019JOikX7IZcnnbQnU-8" vertex="1">
          <mxGeometry y="140" width="160" height="8" as="geometry" />
        </mxCell>
        <mxCell id="XL019JOikX7IZcnnbQnU-11" value="# checkStatus(): string&#xa;&#xa;# resetPassword(): void&#xa;" style="text;align=left;verticalAlign=top;spacingLeft=4;spacingRight=4;overflow=hidden;rotatable=0;points=[[0,0.5],[1,0.5]];portConstraint=eastwest;" parent="XL019JOikX7IZcnnbQnU-8" vertex="1">
          <mxGeometry y="148" width="160" height="62" as="geometry" />
        </mxCell>
        <mxCell id="XL019JOikX7IZcnnbQnU-14" value="" style="endArrow=open;shadow=0;strokeWidth=1;rounded=0;curved=0;endFill=1;edgeStyle=elbowEdgeStyle;elbow=vertical;exitX=1;exitY=0.5;exitDx=0;exitDy=0;entryX=0;entryY=0.5;entryDx=0;entryDy=0;" parent="WIyWlLk6GJQsqaUBKTNV-1" source="QisyYEOGhZmKc4R2BYfi-62" target="XL019JOikX7IZcnnbQnU-1" edge="1">
          <mxGeometry x="0.5" y="41" relative="1" as="geometry">
            <mxPoint x="690" y="500.25" as="sourcePoint" />
            <mxPoint x="818" y="500.25" as="targetPoint" />
            <mxPoint x="-40" y="32" as="offset" />
          </mxGeometry>
        </mxCell>
        <mxCell id="XL019JOikX7IZcnnbQnU-15" value="0..1" style="resizable=0;align=left;verticalAlign=bottom;labelBackgroundColor=none;fontSize=12;" parent="XL019JOikX7IZcnnbQnU-14" connectable="0" vertex="1">
          <mxGeometry x="-1" relative="1" as="geometry">
            <mxPoint x="-510" y="36" as="offset" />
          </mxGeometry>
        </mxCell>
        <mxCell id="XL019JOikX7IZcnnbQnU-16" value="1" style="resizable=0;align=right;verticalAlign=bottom;labelBackgroundColor=none;fontSize=12;" parent="XL019JOikX7IZcnnbQnU-14" connectable="0" vertex="1">
          <mxGeometry x="1" relative="1" as="geometry">
            <mxPoint x="-350" y="-8" as="offset" />
          </mxGeometry>
        </mxCell>
        <mxCell id="XL019JOikX7IZcnnbQnU-17" value="&lt;font style=&quot;font-size: 14px;&quot;&gt;Belongs to&lt;br&gt;&lt;/font&gt;" style="text;html=1;resizable=0;points=[];;align=center;verticalAlign=middle;labelBackgroundColor=none;rounded=0;shadow=0;strokeWidth=1;fontSize=12;" parent="XL019JOikX7IZcnnbQnU-14" vertex="1" connectable="0">
          <mxGeometry x="0.5" y="49" relative="1" as="geometry">
            <mxPoint x="-80" y="39" as="offset" />
          </mxGeometry>
        </mxCell>
        <mxCell id="XL019JOikX7IZcnnbQnU-29" value="" style="endArrow=open;shadow=0;strokeWidth=1;rounded=0;curved=0;endFill=1;edgeStyle=elbowEdgeStyle;elbow=vertical;exitX=0.75;exitY=0;exitDx=0;exitDy=0;entryX=0.5;entryY=1;entryDx=0;entryDy=0;" parent="WIyWlLk6GJQsqaUBKTNV-1" source="QisyYEOGhZmKc4R2BYfi-61" target="XL019JOikX7IZcnnbQnU-4" edge="1">
          <mxGeometry x="0.5" y="41" relative="1" as="geometry">
            <mxPoint x="610" y="494" as="sourcePoint" />
            <mxPoint x="1000" y="250" as="targetPoint" />
            <mxPoint x="-40" y="32" as="offset" />
            <Array as="points">
              <mxPoint x="800" y="380" />
            </Array>
          </mxGeometry>
        </mxCell>
        <mxCell id="XL019JOikX7IZcnnbQnU-30" value="0..1" style="resizable=0;align=left;verticalAlign=bottom;labelBackgroundColor=none;fontSize=12;" parent="XL019JOikX7IZcnnbQnU-29" connectable="0" vertex="1">
          <mxGeometry x="-1" relative="1" as="geometry">
            <mxPoint x="741" y="54" as="offset" />
          </mxGeometry>
        </mxCell>
        <mxCell id="XL019JOikX7IZcnnbQnU-32" value="Make" style="text;html=1;resizable=0;points=[];;align=center;verticalAlign=middle;labelBackgroundColor=none;rounded=0;shadow=0;strokeWidth=1;fontSize=12;" parent="XL019JOikX7IZcnnbQnU-29" vertex="1" connectable="0">
          <mxGeometry x="0.5" y="49" relative="1" as="geometry">
            <mxPoint x="-80" y="39" as="offset" />
          </mxGeometry>
        </mxCell>
        <mxCell id="XL019JOikX7IZcnnbQnU-34" value="0..1" style="resizable=0;align=left;verticalAlign=bottom;labelBackgroundColor=none;fontSize=12;" parent="WIyWlLk6GJQsqaUBKTNV-1" connectable="0" vertex="1">
          <mxGeometry x="565" y="445" as="geometry" />
        </mxCell>
        <mxCell id="XL019JOikX7IZcnnbQnU-35" value="0..1" style="resizable=0;align=left;verticalAlign=bottom;labelBackgroundColor=none;fontSize=12;" parent="WIyWlLk6GJQsqaUBKTNV-1" connectable="0" vertex="1">
          <mxGeometry x="1092" y="351" as="geometry" />
        </mxCell>
        <mxCell id="XL019JOikX7IZcnnbQnU-36" value="Menu" style="swimlane;fontStyle=2;align=center;verticalAlign=top;childLayout=stackLayout;horizontal=1;startSize=26;horizontalStack=0;resizeParent=1;resizeLast=0;collapsible=1;marginBottom=0;rounded=0;shadow=0;strokeWidth=1;" parent="WIyWlLk6GJQsqaUBKTNV-1" vertex="1">
          <mxGeometry x="1330" y="415" width="160" height="248" as="geometry">
            <mxRectangle x="230" y="140" width="160" height="26" as="alternateBounds" />
          </mxGeometry>
        </mxCell>
        <mxCell id="XL019JOikX7IZcnnbQnU-37" value="+ menuID: int&#xa;&#xa;+ title: string&#xa;&#xa;+ menuItems: MenuItem&#xa;&#xa;" style="text;align=left;verticalAlign=top;spacingLeft=4;spacingRight=4;overflow=hidden;rotatable=0;points=[[0,0.5],[1,0.5]];portConstraint=eastwest;" parent="XL019JOikX7IZcnnbQnU-36" vertex="1">
          <mxGeometry y="26" width="160" height="114" as="geometry" />
        </mxCell>
        <mxCell id="XL019JOikX7IZcnnbQnU-38" value="" style="line;html=1;strokeWidth=1;align=left;verticalAlign=middle;spacingTop=-1;spacingLeft=3;spacingRight=3;rotatable=0;labelPosition=right;points=[];portConstraint=eastwest;" parent="XL019JOikX7IZcnnbQnU-36" vertex="1">
          <mxGeometry y="140" width="160" height="8" as="geometry" />
        </mxCell>
        <mxCell id="XL019JOikX7IZcnnbQnU-39" value="&lt;div&gt;+ addItem(): void&lt;/div&gt;&lt;div&gt;&lt;br&gt;&lt;/div&gt;&lt;div&gt;+ updateItem(): void&lt;/div&gt;&lt;div&gt;&lt;br&gt;&lt;/div&gt;&lt;div&gt;+ deleteItem(): void&lt;/div&gt;&lt;div&gt;&lt;br&gt;&lt;/div&gt;" style="text;html=1;align=left;verticalAlign=middle;resizable=0;points=[];autosize=1;strokeColor=none;fillColor=none;" parent="XL019JOikX7IZcnnbQnU-36" vertex="1">
          <mxGeometry y="148" width="160" height="100" as="geometry" />
        </mxCell>
        <mxCell id="XL019JOikX7IZcnnbQnU-40" value="" style="endArrow=diamondThin;endFill=1;endSize=24;html=1;rounded=0;entryX=1;entryY=0.5;entryDx=0;entryDy=0;exitX=0;exitY=0.5;exitDx=0;exitDy=0;" parent="WIyWlLk6GJQsqaUBKTNV-1" source="XL019JOikX7IZcnnbQnU-37" target="XL019JOikX7IZcnnbQnU-1" edge="1">
          <mxGeometry width="160" relative="1" as="geometry">
            <mxPoint x="1270" y="320" as="sourcePoint" />
            <mxPoint x="1430" y="320" as="targetPoint" />
            <Array as="points">
              <mxPoint x="1230" y="498" />
            </Array>
          </mxGeometry>
        </mxCell>
        <mxCell id="XL019JOikX7IZcnnbQnU-41" value="0..1" style="resizable=0;align=left;verticalAlign=bottom;labelBackgroundColor=none;fontSize=12;" parent="WIyWlLk6GJQsqaUBKTNV-1" connectable="0" vertex="1">
          <mxGeometry x="1160" y="499" as="geometry" />
        </mxCell>
        <mxCell id="XL019JOikX7IZcnnbQnU-42" value="Cash " style="swimlane;fontStyle=2;align=center;verticalAlign=top;childLayout=stackLayout;horizontal=1;startSize=40;horizontalStack=0;resizeParent=1;resizeLast=0;collapsible=1;marginBottom=0;rounded=0;shadow=0;strokeWidth=1;" parent="WIyWlLk6GJQsqaUBKTNV-1" vertex="1">
          <mxGeometry x="1250" y="50" width="160" height="30" as="geometry">
            <mxRectangle x="230" y="140" width="160" height="26" as="alternateBounds" />
          </mxGeometry>
        </mxCell>
        <mxCell id="XL019JOikX7IZcnnbQnU-46" value="Card" style="swimlane;fontStyle=2;align=center;verticalAlign=top;childLayout=stackLayout;horizontal=1;startSize=40;horizontalStack=0;resizeParent=1;resizeLast=0;collapsible=1;marginBottom=0;rounded=0;shadow=0;strokeWidth=1;" parent="WIyWlLk6GJQsqaUBKTNV-1" vertex="1">
          <mxGeometry x="1045" y="50" width="160" height="30" as="geometry">
            <mxRectangle x="230" y="140" width="160" height="26" as="alternateBounds" />
          </mxGeometry>
        </mxCell>
        <mxCell id="XL019JOikX7IZcnnbQnU-47" value="" style="endArrow=block;endSize=16;endFill=0;html=1;rounded=0;exitX=0.5;exitY=0;exitDx=0;exitDy=0;entryX=0.5;entryY=1;entryDx=0;entryDy=0;" parent="WIyWlLk6GJQsqaUBKTNV-1" source="XL019JOikX7IZcnnbQnU-4" target="XL019JOikX7IZcnnbQnU-46" edge="1">
          <mxGeometry width="160" relative="1" as="geometry">
            <mxPoint x="1270" y="130" as="sourcePoint" />
            <mxPoint x="1430" y="130" as="targetPoint" />
            <Array as="points" />
          </mxGeometry>
        </mxCell>
        <mxCell id="XL019JOikX7IZcnnbQnU-48" value="" style="endArrow=block;endSize=16;endFill=0;html=1;rounded=0;exitX=1;exitY=0.5;exitDx=0;exitDy=0;entryX=0.5;entryY=1;entryDx=0;entryDy=0;" parent="WIyWlLk6GJQsqaUBKTNV-1" source="XL019JOikX7IZcnnbQnU-127" target="XL019JOikX7IZcnnbQnU-42" edge="1">
          <mxGeometry width="160" relative="1" as="geometry">
            <mxPoint x="1130" y="184" as="sourcePoint" />
            <mxPoint x="1130" y="90" as="targetPoint" />
            <Array as="points">
              <mxPoint x="1330" y="240" />
            </Array>
          </mxGeometry>
        </mxCell>
        <mxCell id="XL019JOikX7IZcnnbQnU-57" value="Table" style="swimlane;fontStyle=2;align=center;verticalAlign=top;childLayout=stackLayout;horizontal=1;startSize=26;horizontalStack=0;resizeParent=1;resizeLast=0;collapsible=1;marginBottom=0;rounded=0;shadow=0;strokeWidth=1;" parent="WIyWlLk6GJQsqaUBKTNV-1" vertex="1">
          <mxGeometry x="1450" y="130" width="160" height="208" as="geometry">
            <mxRectangle x="230" y="140" width="160" height="26" as="alternateBounds" />
          </mxGeometry>
        </mxCell>
        <mxCell id="XL019JOikX7IZcnnbQnU-58" value="+ tableNumber: int&#xa;&#xa;+ tableStatus: string&#xa;&#xa;+ maxCapacity: int&#xa;&#xa;" style="text;align=left;verticalAlign=top;spacingLeft=4;spacingRight=4;overflow=hidden;rotatable=0;points=[[0,0.5],[1,0.5]];portConstraint=eastwest;" parent="XL019JOikX7IZcnnbQnU-57" vertex="1">
          <mxGeometry y="26" width="160" height="114" as="geometry" />
        </mxCell>
        <mxCell id="XL019JOikX7IZcnnbQnU-59" value="" style="line;html=1;strokeWidth=1;align=left;verticalAlign=middle;spacingTop=-1;spacingLeft=3;spacingRight=3;rotatable=0;labelPosition=right;points=[];portConstraint=eastwest;" parent="XL019JOikX7IZcnnbQnU-57" vertex="1">
          <mxGeometry y="140" width="160" height="8" as="geometry" />
        </mxCell>
        <mxCell id="XL019JOikX7IZcnnbQnU-60" value="&lt;div&gt;+ tableDetails(): void&lt;/div&gt;&lt;div&gt;&lt;br&gt;&lt;/div&gt;&lt;div&gt;+ availableStatus(): string&lt;br&gt;&lt;/div&gt;" style="text;html=1;align=left;verticalAlign=middle;resizable=0;points=[];autosize=1;strokeColor=none;fillColor=none;" parent="XL019JOikX7IZcnnbQnU-57" vertex="1">
          <mxGeometry y="148" width="160" height="60" as="geometry" />
        </mxCell>
        <mxCell id="XL019JOikX7IZcnnbQnU-61" value="Bill" style="swimlane;fontStyle=2;align=center;verticalAlign=top;childLayout=stackLayout;horizontal=1;startSize=26;horizontalStack=0;resizeParent=1;resizeLast=0;collapsible=1;marginBottom=0;rounded=0;shadow=0;strokeWidth=1;" parent="WIyWlLk6GJQsqaUBKTNV-1" vertex="1">
          <mxGeometry x="1710" y="80" width="160" height="150" as="geometry">
            <mxRectangle x="230" y="140" width="160" height="26" as="alternateBounds" />
          </mxGeometry>
        </mxCell>
        <mxCell id="XL019JOikX7IZcnnbQnU-62" value="+ billID: int&#xa;&#xa;+ orderID: int&#xa;&#xa;+ totalBill: int&#xa;" style="text;align=left;verticalAlign=top;spacingLeft=4;spacingRight=4;overflow=hidden;rotatable=0;points=[[0,0.5],[1,0.5]];portConstraint=eastwest;" parent="XL019JOikX7IZcnnbQnU-61" vertex="1">
          <mxGeometry y="26" width="160" height="84" as="geometry" />
        </mxCell>
        <mxCell id="XL019JOikX7IZcnnbQnU-63" value="" style="line;html=1;strokeWidth=1;align=left;verticalAlign=middle;spacingTop=-1;spacingLeft=3;spacingRight=3;rotatable=0;labelPosition=right;points=[];portConstraint=eastwest;" parent="XL019JOikX7IZcnnbQnU-61" vertex="1">
          <mxGeometry y="110" width="160" height="8" as="geometry" />
        </mxCell>
        <mxCell id="XL019JOikX7IZcnnbQnU-64" value="+ CalculateBill(): void" style="text;html=1;align=left;verticalAlign=middle;resizable=0;points=[];autosize=1;strokeColor=none;fillColor=none;" parent="XL019JOikX7IZcnnbQnU-61" vertex="1">
          <mxGeometry y="118" width="160" height="30" as="geometry" />
        </mxCell>
        <mxCell id="XL019JOikX7IZcnnbQnU-91" value="Order Queue" style="swimlane;fontStyle=2;align=center;verticalAlign=top;childLayout=stackLayout;horizontal=1;startSize=26;horizontalStack=0;resizeParent=1;resizeLast=0;collapsible=1;marginBottom=0;rounded=0;shadow=0;strokeWidth=1;" parent="WIyWlLk6GJQsqaUBKTNV-1" vertex="1">
          <mxGeometry x="1590" y="470" width="160" height="170" as="geometry">
            <mxRectangle x="230" y="140" width="160" height="26" as="alternateBounds" />
          </mxGeometry>
        </mxCell>
        <mxCell id="XL019JOikX7IZcnnbQnU-92" value="+ ID: int&#xa;&#xa;+ Name: string&#xa;" style="text;align=left;verticalAlign=top;spacingLeft=4;spacingRight=4;overflow=hidden;rotatable=0;points=[[0,0.5],[1,0.5]];portConstraint=eastwest;" parent="XL019JOikX7IZcnnbQnU-91" vertex="1">
          <mxGeometry y="26" width="160" height="64" as="geometry" />
        </mxCell>
        <mxCell id="XL019JOikX7IZcnnbQnU-93" value="" style="line;html=1;strokeWidth=1;align=left;verticalAlign=middle;spacingTop=-1;spacingLeft=3;spacingRight=3;rotatable=0;labelPosition=right;points=[];portConstraint=eastwest;" parent="XL019JOikX7IZcnnbQnU-91" vertex="1">
          <mxGeometry y="90" width="160" height="8" as="geometry" />
        </mxCell>
        <mxCell id="XL019JOikX7IZcnnbQnU-94" value="&lt;div&gt;+ cancelOrder(): void&lt;/div&gt;&lt;div&gt;&lt;br&gt;&lt;/div&gt;&lt;div&gt;+ updateOrder(): void&lt;br&gt;&lt;/div&gt;" style="text;html=1;align=left;verticalAlign=middle;resizable=0;points=[];autosize=1;strokeColor=none;fillColor=none;" parent="XL019JOikX7IZcnnbQnU-91" vertex="1">
          <mxGeometry y="98" width="160" height="60" as="geometry" />
        </mxCell>
        <mxCell id="XL019JOikX7IZcnnbQnU-96" value="0..1" style="resizable=0;align=left;verticalAlign=bottom;labelBackgroundColor=none;fontSize=12;" parent="WIyWlLk6GJQsqaUBKTNV-1" connectable="0" vertex="1">
          <mxGeometry x="1540" y="361.9999999999999" as="geometry" />
        </mxCell>
        <mxCell id="XL019JOikX7IZcnnbQnU-97" value="Delivery" style="swimlane;fontStyle=2;align=center;verticalAlign=top;childLayout=stackLayout;horizontal=1;startSize=26;horizontalStack=0;resizeParent=1;resizeLast=0;collapsible=1;marginBottom=0;rounded=0;shadow=0;strokeWidth=1;" parent="WIyWlLk6GJQsqaUBKTNV-1" vertex="1">
          <mxGeometry x="1960" y="80" width="170" height="150" as="geometry">
            <mxRectangle x="230" y="140" width="160" height="26" as="alternateBounds" />
          </mxGeometry>
        </mxCell>
        <mxCell id="XL019JOikX7IZcnnbQnU-98" value="+ id: int&#xa;&#xa;+ status: string &#xa;&#xa;+ distance: string&#xa;" style="text;align=left;verticalAlign=top;spacingLeft=4;spacingRight=4;overflow=hidden;rotatable=0;points=[[0,0.5],[1,0.5]];portConstraint=eastwest;" parent="XL019JOikX7IZcnnbQnU-97" vertex="1">
          <mxGeometry y="26" width="170" height="84" as="geometry" />
        </mxCell>
        <mxCell id="XL019JOikX7IZcnnbQnU-99" value="" style="line;html=1;strokeWidth=1;align=left;verticalAlign=middle;spacingTop=-1;spacingLeft=3;spacingRight=3;rotatable=0;labelPosition=right;points=[];portConstraint=eastwest;" parent="XL019JOikX7IZcnnbQnU-97" vertex="1">
          <mxGeometry y="110" width="170" height="8" as="geometry" />
        </mxCell>
        <mxCell id="XL019JOikX7IZcnnbQnU-100" value="&amp;nbsp;+ getDeliveryStatus(): void" style="text;html=1;align=left;verticalAlign=middle;resizable=0;points=[];autosize=1;strokeColor=none;fillColor=none;" parent="XL019JOikX7IZcnnbQnU-97" vertex="1">
          <mxGeometry y="118" width="170" height="30" as="geometry" />
        </mxCell>
        <mxCell id="XL019JOikX7IZcnnbQnU-113" value="" style="endArrow=none;html=1;rounded=0;entryX=0.499;entryY=0.979;entryDx=0;entryDy=0;entryPerimeter=0;exitX=0;exitY=0;exitDx=0;exitDy=0;exitPerimeter=0;" parent="WIyWlLk6GJQsqaUBKTNV-1" source="XL019JOikX7IZcnnbQnU-114" target="QisyYEOGhZmKc4R2BYfi-60" edge="1">
          <mxGeometry width="50" height="50" relative="1" as="geometry">
            <mxPoint x="1842" y="950" as="sourcePoint" />
            <mxPoint x="1870" y="900" as="targetPoint" />
          </mxGeometry>
        </mxCell>
        <mxCell id="XL019JOikX7IZcnnbQnU-114" value="" style="shape=requiredInterface;html=1;verticalLabelPosition=bottom;sketch=0;" parent="WIyWlLk6GJQsqaUBKTNV-1" vertex="1">
          <mxGeometry x="1840" y="950" width="10" height="20" as="geometry" />
        </mxCell>
        <mxCell id="XL019JOikX7IZcnnbQnU-115" value="0..1" style="resizable=0;align=left;verticalAlign=bottom;labelBackgroundColor=none;fontSize=12;" parent="WIyWlLk6GJQsqaUBKTNV-1" connectable="0" vertex="1">
          <mxGeometry x="2130" y="139.9999999999999" as="geometry" />
        </mxCell>
        <mxCell id="XL019JOikX7IZcnnbQnU-119" value="" style="endArrow=none;html=1;rounded=0;exitX=1.009;exitY=0.012;exitDx=0;exitDy=0;exitPerimeter=0;" parent="WIyWlLk6GJQsqaUBKTNV-1" source="XL019JOikX7IZcnnbQnU-5" edge="1">
          <mxGeometry width="50" height="50" relative="1" as="geometry">
            <mxPoint x="1202" y="220" as="sourcePoint" />
            <mxPoint x="1320" y="200" as="targetPoint" />
          </mxGeometry>
        </mxCell>
        <mxCell id="XL019JOikX7IZcnnbQnU-125" value="" style="endArrow=none;html=1;rounded=0;entryX=0;entryY=0.5;entryDx=0;entryDy=0;" parent="WIyWlLk6GJQsqaUBKTNV-1" target="XL019JOikX7IZcnnbQnU-62" edge="1">
          <mxGeometry width="50" height="50" relative="1" as="geometry">
            <mxPoint x="1340" y="200" as="sourcePoint" />
            <mxPoint x="1400" y="170" as="targetPoint" />
            <Array as="points">
              <mxPoint x="1340" y="200" />
              <mxPoint x="1350" y="200" />
              <mxPoint x="1350" y="130" />
              <mxPoint x="1440" y="130" />
              <mxPoint x="1440" y="70" />
              <mxPoint x="1660" y="70" />
              <mxPoint x="1660" y="150" />
            </Array>
          </mxGeometry>
        </mxCell>
        <mxCell id="XL019JOikX7IZcnnbQnU-127" value="" style="shape=requiredInterface;html=1;verticalLabelPosition=bottom;sketch=0;direction=north;" parent="WIyWlLk6GJQsqaUBKTNV-1" vertex="1">
          <mxGeometry x="1320" y="190" width="20" height="10" as="geometry" />
        </mxCell>
        <mxCell id="XL019JOikX7IZcnnbQnU-138" value="" style="endArrow=none;html=1;rounded=0;exitX=1;exitY=0.5;exitDx=0;exitDy=0;" parent="WIyWlLk6GJQsqaUBKTNV-1" source="XL019JOikX7IZcnnbQnU-5" edge="1">
          <mxGeometry width="50" height="50" relative="1" as="geometry">
            <mxPoint x="1240" y="270" as="sourcePoint" />
            <mxPoint x="1330" y="240" as="targetPoint" />
          </mxGeometry>
        </mxCell>
        <mxCell id="XL019JOikX7IZcnnbQnU-139" value="" style="endArrow=diamondThin;endFill=1;endSize=24;html=1;rounded=0;entryX=0.321;entryY=0;entryDx=0;entryDy=0;entryPerimeter=0;" parent="WIyWlLk6GJQsqaUBKTNV-1" target="XL019JOikX7IZcnnbQnU-91" edge="1">
          <mxGeometry width="160" relative="1" as="geometry">
            <mxPoint x="1130" y="470" as="sourcePoint" />
            <mxPoint x="1630" y="450" as="targetPoint" />
            <Array as="points">
              <mxPoint x="1220" y="470" />
              <mxPoint x="1220" y="410" />
              <mxPoint x="1640" y="410" />
            </Array>
          </mxGeometry>
        </mxCell>
        <mxCell id="XL019JOikX7IZcnnbQnU-140" value="1" style="edgeLabel;resizable=0;html=1;align=left;verticalAlign=bottom;" parent="WIyWlLk6GJQsqaUBKTNV-1" connectable="0" vertex="1">
          <mxGeometry x="1649.9999999999998" y="445.00000000000006" as="geometry" />
        </mxCell>
        <mxCell id="XL019JOikX7IZcnnbQnU-142" value="Reservation" style="swimlane;fontStyle=2;align=center;verticalAlign=top;childLayout=stackLayout;horizontal=1;startSize=26;horizontalStack=0;resizeParent=1;resizeLast=0;collapsible=1;marginBottom=0;rounded=0;shadow=0;strokeWidth=1;" parent="WIyWlLk6GJQsqaUBKTNV-1" vertex="1">
          <mxGeometry x="2280" y="570" width="170" height="190" as="geometry">
            <mxRectangle x="230" y="140" width="160" height="26" as="alternateBounds" />
          </mxGeometry>
        </mxCell>
        <mxCell id="XL019JOikX7IZcnnbQnU-143" value="+ reservationID: int&#xa;&#xa;+ timeOfReservation: date&#xa;&#xa;+ checkInTime: time&#xa;&#xa;+ customer: Customer&#xa;" style="text;align=left;verticalAlign=top;spacingLeft=4;spacingRight=4;overflow=hidden;rotatable=0;points=[[0,0.5],[1,0.5]];portConstraint=eastwest;" parent="XL019JOikX7IZcnnbQnU-142" vertex="1">
          <mxGeometry y="26" width="170" height="114" as="geometry" />
        </mxCell>
        <mxCell id="XL019JOikX7IZcnnbQnU-144" value="" style="line;html=1;strokeWidth=1;align=left;verticalAlign=middle;spacingTop=-1;spacingLeft=3;spacingRight=3;rotatable=0;labelPosition=right;points=[];portConstraint=eastwest;" parent="XL019JOikX7IZcnnbQnU-142" vertex="1">
          <mxGeometry y="140" width="170" height="8" as="geometry" />
        </mxCell>
        <mxCell id="XL019JOikX7IZcnnbQnU-145" value="+ updateReservation(): void" style="text;html=1;align=left;verticalAlign=middle;resizable=0;points=[];autosize=1;strokeColor=none;fillColor=none;" parent="XL019JOikX7IZcnnbQnU-142" vertex="1">
          <mxGeometry y="148" width="170" height="30" as="geometry" />
        </mxCell>
        <mxCell id="XL019JOikX7IZcnnbQnU-147" value="" style="endArrow=none;html=1;rounded=0;entryX=0.753;entryY=1.02;entryDx=0;entryDy=0;entryPerimeter=0;" parent="WIyWlLk6GJQsqaUBKTNV-1" edge="1">
          <mxGeometry width="50" height="50" relative="1" as="geometry">
            <mxPoint x="545" y="950" as="sourcePoint" />
            <mxPoint x="545.48" y="891.8800000000001" as="targetPoint" />
          </mxGeometry>
        </mxCell>
        <mxCell id="XL019JOikX7IZcnnbQnU-148" value="" style="endArrow=none;html=1;rounded=0;entryX=0.104;entryY=0.058;entryDx=0;entryDy=0;entryPerimeter=0;exitX=0.5;exitY=1;exitDx=0;exitDy=0;" parent="WIyWlLk6GJQsqaUBKTNV-1" source="XL019JOikX7IZcnnbQnU-142" target="XL019JOikX7IZcnnbQnU-153" edge="1">
          <mxGeometry width="50" height="50" relative="1" as="geometry">
            <mxPoint x="2416.6666666666665" y="1020" as="sourcePoint" />
            <mxPoint x="540" y="970" as="targetPoint" />
            <Array as="points">
              <mxPoint x="2360" y="1030" />
              <mxPoint x="544" y="1030" />
            </Array>
          </mxGeometry>
        </mxCell>
        <mxCell id="XL019JOikX7IZcnnbQnU-153" value="" style="shape=requiredInterface;html=1;verticalLabelPosition=bottom;sketch=0;direction=west;" parent="WIyWlLk6GJQsqaUBKTNV-1" vertex="1">
          <mxGeometry x="535" y="950" width="10" height="20" as="geometry" />
        </mxCell>
        <mxCell id="XL019JOikX7IZcnnbQnU-162" value="1" style="resizable=0;align=right;verticalAlign=bottom;labelBackgroundColor=none;fontSize=12;" parent="WIyWlLk6GJQsqaUBKTNV-1" connectable="0" vertex="1">
          <mxGeometry x="690" y="493.9994117647059" as="geometry">
            <mxPoint x="-126" y="418" as="offset" />
          </mxGeometry>
        </mxCell>
        <mxCell id="XL019JOikX7IZcnnbQnU-165" value="1" style="resizable=0;align=right;verticalAlign=bottom;labelBackgroundColor=none;fontSize=12;" parent="WIyWlLk6GJQsqaUBKTNV-1" connectable="0" vertex="1">
          <mxGeometry x="486.9999999999998" y="910.9979310344829" as="geometry" />
        </mxCell>
        <mxCell id="XL019JOikX7IZcnnbQnU-166" value="0..1" style="resizable=0;align=left;verticalAlign=bottom;labelBackgroundColor=none;fontSize=12;" parent="WIyWlLk6GJQsqaUBKTNV-1" connectable="0" vertex="1">
          <mxGeometry x="2370" y="784.9999999999999" as="geometry" />
        </mxCell>
        <mxCell id="XL019JOikX7IZcnnbQnU-167" value="tableSeat" style="swimlane;fontStyle=2;align=center;verticalAlign=top;childLayout=stackLayout;horizontal=1;startSize=26;horizontalStack=0;resizeParent=1;resizeLast=0;collapsible=1;marginBottom=0;rounded=0;shadow=0;strokeWidth=1;" parent="WIyWlLk6GJQsqaUBKTNV-1" vertex="1">
          <mxGeometry x="1830" y="460" width="160" height="140" as="geometry">
            <mxRectangle x="230" y="140" width="160" height="26" as="alternateBounds" />
          </mxGeometry>
        </mxCell>
        <mxCell id="XL019JOikX7IZcnnbQnU-168" value="+ number: int&#xa;&#xa;+ type: string&#xa;" style="text;align=left;verticalAlign=top;spacingLeft=4;spacingRight=4;overflow=hidden;rotatable=0;points=[[0,0.5],[1,0.5]];portConstraint=eastwest;" parent="XL019JOikX7IZcnnbQnU-167" vertex="1">
          <mxGeometry y="26" width="160" height="64" as="geometry" />
        </mxCell>
        <mxCell id="XL019JOikX7IZcnnbQnU-169" value="" style="line;html=1;strokeWidth=1;align=left;verticalAlign=middle;spacingTop=-1;spacingLeft=3;spacingRight=3;rotatable=0;labelPosition=right;points=[];portConstraint=eastwest;" parent="XL019JOikX7IZcnnbQnU-167" vertex="1">
          <mxGeometry y="90" width="160" height="8" as="geometry" />
        </mxCell>
        <mxCell id="XL019JOikX7IZcnnbQnU-171" value="+ updateSeatType(): void" style="text;html=1;align=left;verticalAlign=middle;resizable=0;points=[];autosize=1;strokeColor=none;fillColor=none;" parent="XL019JOikX7IZcnnbQnU-167" vertex="1">
          <mxGeometry y="98" width="160" height="30" as="geometry" />
        </mxCell>
        <mxCell id="XL019JOikX7IZcnnbQnU-172" value="" style="endArrow=diamondThin;endFill=1;endSize=24;html=1;rounded=0;exitX=0.5;exitY=0;exitDx=0;exitDy=0;entryX=0.228;entryY=1.04;entryDx=0;entryDy=0;entryPerimeter=0;" parent="WIyWlLk6GJQsqaUBKTNV-1" source="XL019JOikX7IZcnnbQnU-167" target="XL019JOikX7IZcnnbQnU-60" edge="1">
          <mxGeometry width="160" relative="1" as="geometry">
            <mxPoint x="1810" y="410" as="sourcePoint" />
            <mxPoint x="1910" y="378.4" as="targetPoint" />
            <Array as="points">
              <mxPoint x="1910" y="390" />
              <mxPoint x="1486" y="390" />
            </Array>
          </mxGeometry>
        </mxCell>
        <mxCell id="XL019JOikX7IZcnnbQnU-173" value="" style="endArrow=none;html=1;rounded=0;exitX=0.318;exitY=1.021;exitDx=0;exitDy=0;exitPerimeter=0;entryX=0.438;entryY=1.067;entryDx=0;entryDy=0;entryPerimeter=0;" parent="WIyWlLk6GJQsqaUBKTNV-1" source="QisyYEOGhZmKc4R2BYfi-11" target="XL019JOikX7IZcnnbQnU-60" edge="1">
          <mxGeometry width="50" height="50" relative="1" as="geometry">
            <mxPoint x="470" y="930" as="sourcePoint" />
            <mxPoint x="2128.235294117647" y="930" as="targetPoint" />
            <Array as="points">
              <mxPoint x="470" y="920" />
              <mxPoint x="470" y="960" />
              <mxPoint x="2100" y="960" />
              <mxPoint x="2100" y="370" />
              <mxPoint x="1520" y="370" />
            </Array>
          </mxGeometry>
        </mxCell>
        <mxCell id="XL019JOikX7IZcnnbQnU-174" value="MenuItem" style="swimlane;fontStyle=2;align=center;verticalAlign=top;childLayout=stackLayout;horizontal=1;startSize=26;horizontalStack=0;resizeParent=1;resizeLast=0;collapsible=1;marginBottom=0;rounded=0;shadow=0;strokeWidth=1;" parent="WIyWlLk6GJQsqaUBKTNV-1" vertex="1">
          <mxGeometry x="1360" y="1120" width="160" height="190" as="geometry">
            <mxRectangle x="230" y="140" width="160" height="26" as="alternateBounds" />
          </mxGeometry>
        </mxCell>
        <mxCell id="XL019JOikX7IZcnnbQnU-175" value="+ id: int&#xa;&#xa;+ itemName: string &#xa;&#xa;+ itemDescription: string&#xa;&#xa;+ itemPrice: int&#xa;" style="text;align=left;verticalAlign=top;spacingLeft=4;spacingRight=4;overflow=hidden;rotatable=0;points=[[0,0.5],[1,0.5]];portConstraint=eastwest;" parent="XL019JOikX7IZcnnbQnU-174" vertex="1">
          <mxGeometry y="26" width="160" height="114" as="geometry" />
        </mxCell>
        <mxCell id="GFZbav0f2nHTLZzMXN7z-8" value="" style="line;html=1;strokeWidth=1;align=left;verticalAlign=middle;spacingTop=-1;spacingLeft=3;spacingRight=3;rotatable=0;labelPosition=right;points=[];portConstraint=eastwest;" vertex="1" parent="XL019JOikX7IZcnnbQnU-174">
          <mxGeometry y="140" width="160" height="8" as="geometry" />
        </mxCell>
        <mxCell id="GFZbav0f2nHTLZzMXN7z-6" value="+ getAll: void&#xa;" style="text;align=left;verticalAlign=top;spacingLeft=4;spacingRight=4;overflow=hidden;rotatable=0;points=[[0,0.5],[1,0.5]];portConstraint=eastwest;" vertex="1" parent="XL019JOikX7IZcnnbQnU-174">
          <mxGeometry y="148" width="160" height="32" as="geometry" />
        </mxCell>
        <mxCell id="XL019JOikX7IZcnnbQnU-179" value="" style="endArrow=diamondThin;endFill=1;endSize=24;html=1;rounded=0;entryX=0.688;entryY=0.999;entryDx=0;entryDy=0;exitX=0.008;exitY=0;exitDx=0;exitDy=0;exitPerimeter=0;entryPerimeter=0;" parent="WIyWlLk6GJQsqaUBKTNV-1" source="XL019JOikX7IZcnnbQnU-191" target="XL019JOikX7IZcnnbQnU-39" edge="1">
          <mxGeometry width="160" relative="1" as="geometry">
            <mxPoint x="1560.48" y="619" as="sourcePoint" />
            <mxPoint x="1560" y="700" as="targetPoint" />
          </mxGeometry>
        </mxCell>
        <mxCell id="XL019JOikX7IZcnnbQnU-180" value="" style="endArrow=none;html=1;rounded=0;exitX=0.072;exitY=0.021;exitDx=0;exitDy=0;exitPerimeter=0;" parent="WIyWlLk6GJQsqaUBKTNV-1" source="XL019JOikX7IZcnnbQnU-186" edge="1">
          <mxGeometry width="50" height="50" relative="1" as="geometry">
            <mxPoint x="1440" y="1020" as="sourcePoint" />
            <mxPoint x="1440" y="950" as="targetPoint" />
          </mxGeometry>
        </mxCell>
        <mxCell id="XL019JOikX7IZcnnbQnU-181" value="" style="endArrow=none;html=1;rounded=0;entryX=0.013;entryY=1;entryDx=0;entryDy=0;entryPerimeter=0;" parent="WIyWlLk6GJQsqaUBKTNV-1" target="XL019JOikX7IZcnnbQnU-191" edge="1">
          <mxGeometry width="50" height="50" relative="1" as="geometry">
            <mxPoint x="1440" y="950" as="sourcePoint" />
            <mxPoint x="1440" y="720" as="targetPoint" />
          </mxGeometry>
        </mxCell>
        <mxCell id="XL019JOikX7IZcnnbQnU-182" value="" style="endArrow=none;html=1;rounded=0;exitX=0.5;exitY=0;exitDx=0;exitDy=0;entryX=0.19;entryY=0.952;entryDx=0;entryDy=0;entryPerimeter=0;" parent="WIyWlLk6GJQsqaUBKTNV-1" source="XL019JOikX7IZcnnbQnU-174" target="XL019JOikX7IZcnnbQnU-183" edge="1">
          <mxGeometry width="50" height="50" relative="1" as="geometry">
            <mxPoint x="1480" y="700" as="sourcePoint" />
            <mxPoint x="1460" y="680" as="targetPoint" />
          </mxGeometry>
        </mxCell>
        <mxCell id="XL019JOikX7IZcnnbQnU-183" value="" style="shape=requiredInterface;html=1;verticalLabelPosition=bottom;sketch=0;" parent="WIyWlLk6GJQsqaUBKTNV-1" vertex="1">
          <mxGeometry x="1440" y="1020" width="10" height="20" as="geometry" />
        </mxCell>
        <mxCell id="XL019JOikX7IZcnnbQnU-187" value="" style="endArrow=none;html=1;rounded=0;exitX=0.072;exitY=0.021;exitDx=0;exitDy=0;exitPerimeter=0;entryX=0.037;entryY=0.905;entryDx=0;entryDy=0;entryPerimeter=0;" parent="WIyWlLk6GJQsqaUBKTNV-1" source="XL019JOikX7IZcnnbQnU-183" target="XL019JOikX7IZcnnbQnU-186" edge="1">
          <mxGeometry width="50" height="50" relative="1" as="geometry">
            <mxPoint x="1441" y="1050" as="sourcePoint" />
            <mxPoint x="1440" y="950" as="targetPoint" />
          </mxGeometry>
        </mxCell>
        <mxCell id="XL019JOikX7IZcnnbQnU-186" value="" style="shape=requiredInterface;html=1;verticalLabelPosition=bottom;sketch=0;" parent="WIyWlLk6GJQsqaUBKTNV-1" vertex="1">
          <mxGeometry x="1440" y="950" width="10" height="20" as="geometry" />
        </mxCell>
        <mxCell id="XL019JOikX7IZcnnbQnU-191" value="" style="shape=requiredInterface;html=1;verticalLabelPosition=bottom;sketch=0;" parent="WIyWlLk6GJQsqaUBKTNV-1" vertex="1">
          <mxGeometry x="1440" y="700" width="10" height="20" as="geometry" />
        </mxCell>
        <mxCell id="XL019JOikX7IZcnnbQnU-192" value="0..1" style="resizable=0;align=left;verticalAlign=bottom;labelBackgroundColor=none;fontSize=12;" parent="WIyWlLk6GJQsqaUBKTNV-1" connectable="0" vertex="1">
          <mxGeometry x="1446" y="1117" as="geometry" />
        </mxCell>
        <mxCell id="XL019JOikX7IZcnnbQnU-193" value="1" style="resizable=0;align=right;verticalAlign=bottom;labelBackgroundColor=none;fontSize=12;" parent="WIyWlLk6GJQsqaUBKTNV-1" connectable="0" vertex="1">
          <mxGeometry x="616" y="510.8095238095236" as="geometry">
            <mxPoint x="843" y="189" as="offset" />
          </mxGeometry>
        </mxCell>
        <mxCell id="XL019JOikX7IZcnnbQnU-194" value="Notification " style="swimlane;fontStyle=2;align=center;verticalAlign=top;childLayout=stackLayout;horizontal=1;startSize=26;horizontalStack=0;resizeParent=1;resizeLast=0;collapsible=1;marginBottom=0;rounded=0;shadow=0;strokeWidth=1;" parent="WIyWlLk6GJQsqaUBKTNV-1" vertex="1">
          <mxGeometry x="2280" y="230" width="160" height="166" as="geometry">
            <mxRectangle x="230" y="140" width="160" height="26" as="alternateBounds" />
          </mxGeometry>
        </mxCell>
        <mxCell id="XL019JOikX7IZcnnbQnU-195" value="+ id: int&#xa;&#xa;+ createdOn: date&#xa;&#xa;+ content: string&#xa;" style="text;align=left;verticalAlign=top;spacingLeft=4;spacingRight=4;overflow=hidden;rotatable=0;points=[[0,0.5],[1,0.5]];portConstraint=eastwest;" parent="XL019JOikX7IZcnnbQnU-194" vertex="1">
          <mxGeometry y="26" width="160" height="84" as="geometry" />
        </mxCell>
        <mxCell id="XL019JOikX7IZcnnbQnU-196" value="" style="line;html=1;strokeWidth=1;align=left;verticalAlign=middle;spacingTop=-1;spacingLeft=3;spacingRight=3;rotatable=0;labelPosition=right;points=[];portConstraint=eastwest;" parent="XL019JOikX7IZcnnbQnU-194" vertex="1">
          <mxGeometry y="110" width="160" height="8" as="geometry" />
        </mxCell>
        <mxCell id="XL019JOikX7IZcnnbQnU-197" value="+ send(): void" style="text;align=left;verticalAlign=top;spacingLeft=4;spacingRight=4;overflow=hidden;rotatable=0;points=[[0,0.5],[1,0.5]];portConstraint=eastwest;" parent="XL019JOikX7IZcnnbQnU-194" vertex="1">
          <mxGeometry y="118" width="160" height="48" as="geometry" />
        </mxCell>
        <mxCell id="XL019JOikX7IZcnnbQnU-199" value="" style="endArrow=none;html=1;rounded=0;exitX=1.005;exitY=0.134;exitDx=0;exitDy=0;exitPerimeter=0;entryX=0.057;entryY=0.029;entryDx=0;entryDy=0;entryPerimeter=0;" parent="WIyWlLk6GJQsqaUBKTNV-1" edge="1">
          <mxGeometry width="50" height="50" relative="1" as="geometry">
            <mxPoint x="1130.7999999999993" y="441.29599999999994" as="sourcePoint" />
            <mxPoint x="1900.58" y="421.42999999999984" as="targetPoint" />
            <Array as="points">
              <mxPoint x="1180" y="441" />
              <mxPoint x="1180" y="396" />
              <mxPoint x="1490" y="395" />
              <mxPoint x="1810" y="396" />
              <mxPoint x="1900" y="396" />
            </Array>
          </mxGeometry>
        </mxCell>
        <mxCell id="XL019JOikX7IZcnnbQnU-200" value="" style="shape=requiredInterface;html=1;verticalLabelPosition=bottom;sketch=0;direction=north;" parent="WIyWlLk6GJQsqaUBKTNV-1" vertex="1">
          <mxGeometry x="1900" y="416" width="20" height="10" as="geometry" />
        </mxCell>
        <mxCell id="XL019JOikX7IZcnnbQnU-201" value="" style="endArrow=none;html=1;rounded=0;entryX=0.008;entryY=0.536;entryDx=0;entryDy=0;exitX=0.033;exitY=0.983;exitDx=0;exitDy=0;exitPerimeter=0;entryPerimeter=0;" parent="WIyWlLk6GJQsqaUBKTNV-1" source="XL019JOikX7IZcnnbQnU-202" target="XL019JOikX7IZcnnbQnU-195" edge="1">
          <mxGeometry width="50" height="50" relative="1" as="geometry">
            <mxPoint x="2240" y="298" as="sourcePoint" />
            <mxPoint x="2380" y="470" as="targetPoint" />
          </mxGeometry>
        </mxCell>
        <mxCell id="XL019JOikX7IZcnnbQnU-202" value="" style="shape=requiredInterface;html=1;verticalLabelPosition=bottom;sketch=0;direction=north;" parent="WIyWlLk6GJQsqaUBKTNV-1" vertex="1">
          <mxGeometry x="2220" y="290" width="20" height="10" as="geometry" />
        </mxCell>
        <mxCell id="XL019JOikX7IZcnnbQnU-203" value="" style="shape=requiredInterface;html=1;verticalLabelPosition=bottom;sketch=0;direction=north;" parent="WIyWlLk6GJQsqaUBKTNV-1" vertex="1">
          <mxGeometry x="2090" y="416" width="20" height="10" as="geometry" />
        </mxCell>
        <mxCell id="XL019JOikX7IZcnnbQnU-204" value="" style="endArrow=none;html=1;rounded=0;entryX=0;entryY=0;entryDx=0;entryDy=0;entryPerimeter=0;exitX=-0.004;exitY=0.996;exitDx=0;exitDy=0;exitPerimeter=0;" parent="WIyWlLk6GJQsqaUBKTNV-1" source="XL019JOikX7IZcnnbQnU-203" target="XL019JOikX7IZcnnbQnU-202" edge="1">
          <mxGeometry width="50" height="50" relative="1" as="geometry">
            <mxPoint x="2010" y="360" as="sourcePoint" />
            <mxPoint x="2060" y="310" as="targetPoint" />
            <Array as="points">
              <mxPoint x="2140" y="426" />
              <mxPoint x="2140" y="300" />
            </Array>
          </mxGeometry>
        </mxCell>
        <mxCell id="XL019JOikX7IZcnnbQnU-205" value="" style="endArrow=none;html=1;rounded=0;exitX=0;exitY=1;exitDx=0;exitDy=0;exitPerimeter=0;entryX=0.04;entryY=-0.003;entryDx=0;entryDy=0;entryPerimeter=0;" parent="WIyWlLk6GJQsqaUBKTNV-1" source="XL019JOikX7IZcnnbQnU-200" target="XL019JOikX7IZcnnbQnU-203" edge="1">
          <mxGeometry width="50" height="50" relative="1" as="geometry">
            <mxPoint x="1990" y="450" as="sourcePoint" />
            <mxPoint x="2040" y="400" as="targetPoint" />
          </mxGeometry>
        </mxCell>
        <mxCell id="XL019JOikX7IZcnnbQnU-206" value="1" style="edgeLabel;resizable=0;html=1;align=left;verticalAlign=bottom;" parent="WIyWlLk6GJQsqaUBKTNV-1" connectable="0" vertex="1">
          <mxGeometry x="1683.9999999999998" y="470.00000000000006" as="geometry">
            <mxPoint x="-548" y="-31" as="offset" />
          </mxGeometry>
        </mxCell>
        <mxCell id="XL019JOikX7IZcnnbQnU-207" value="1" style="edgeLabel;resizable=0;html=1;align=left;verticalAlign=bottom;" parent="WIyWlLk6GJQsqaUBKTNV-1" connectable="0" vertex="1">
          <mxGeometry x="1689.9999999999998" y="493.00000000000006" as="geometry">
            <mxPoint x="574" y="-195" as="offset" />
          </mxGeometry>
        </mxCell>
        <mxCell id="XL019JOikX7IZcnnbQnU-208" value="Coupon " style="swimlane;fontStyle=2;align=center;verticalAlign=top;childLayout=stackLayout;horizontal=1;startSize=26;horizontalStack=0;resizeParent=1;resizeLast=0;collapsible=1;marginBottom=0;rounded=0;shadow=0;strokeWidth=1;" parent="WIyWlLk6GJQsqaUBKTNV-1" vertex="1">
          <mxGeometry x="1850" y="1117" width="160" height="210" as="geometry">
            <mxRectangle x="230" y="140" width="160" height="26" as="alternateBounds" />
          </mxGeometry>
        </mxCell>
        <mxCell id="XL019JOikX7IZcnnbQnU-209" value="+ CouponCode: int&#xa;&#xa;+ DiscountType: string&#xa;&#xa;+ DiscountValue: int&#xa;&#xa;+ ExpireDate: date&#xa;" style="text;align=left;verticalAlign=top;spacingLeft=4;spacingRight=4;overflow=hidden;rotatable=0;points=[[0,0.5],[1,0.5]];portConstraint=eastwest;" parent="XL019JOikX7IZcnnbQnU-208" vertex="1">
          <mxGeometry y="26" width="160" height="114" as="geometry" />
        </mxCell>
        <mxCell id="XL019JOikX7IZcnnbQnU-210" value="" style="line;html=1;strokeWidth=1;align=left;verticalAlign=middle;spacingTop=-1;spacingLeft=3;spacingRight=3;rotatable=0;labelPosition=right;points=[];portConstraint=eastwest;" parent="XL019JOikX7IZcnnbQnU-208" vertex="1">
          <mxGeometry y="140" width="160" height="8" as="geometry" />
        </mxCell>
        <mxCell id="XL019JOikX7IZcnnbQnU-211" value="&lt;div&gt;+ isValidate(): bool&lt;/div&gt;&lt;div&gt;&lt;br&gt;&lt;/div&gt;&lt;div&gt;+ deleteCoupon(): void&lt;br&gt;&lt;/div&gt;" style="text;html=1;align=left;verticalAlign=middle;resizable=0;points=[];autosize=1;strokeColor=none;fillColor=none;" parent="XL019JOikX7IZcnnbQnU-208" vertex="1">
          <mxGeometry y="148" width="160" height="60" as="geometry" />
        </mxCell>
        <mxCell id="XL019JOikX7IZcnnbQnU-212" value="Checkout" style="swimlane;fontStyle=2;align=center;verticalAlign=top;childLayout=stackLayout;horizontal=1;startSize=26;horizontalStack=0;resizeParent=1;resizeLast=0;collapsible=1;marginBottom=0;rounded=0;shadow=0;strokeWidth=1;" parent="WIyWlLk6GJQsqaUBKTNV-1" vertex="1">
          <mxGeometry x="920" y="1120" width="190" height="248" as="geometry">
            <mxRectangle x="230" y="140" width="160" height="26" as="alternateBounds" />
          </mxGeometry>
        </mxCell>
        <mxCell id="XL019JOikX7IZcnnbQnU-213" value="+ orderID: int&#xa;&#xa;+ menuItems: list[MunuItems]&#xa;&#xa;+ totalAomount: int&#xa;&#xa;+ discount: Discount&#xa;" style="text;align=left;verticalAlign=top;spacingLeft=4;spacingRight=4;overflow=hidden;rotatable=0;points=[[0,0.5],[1,0.5]];portConstraint=eastwest;" parent="XL019JOikX7IZcnnbQnU-212" vertex="1">
          <mxGeometry y="26" width="190" height="124" as="geometry" />
        </mxCell>
        <mxCell id="XL019JOikX7IZcnnbQnU-214" value="" style="line;html=1;strokeWidth=1;align=left;verticalAlign=middle;spacingTop=-1;spacingLeft=3;spacingRight=3;rotatable=0;labelPosition=right;points=[];portConstraint=eastwest;" parent="XL019JOikX7IZcnnbQnU-212" vertex="1">
          <mxGeometry y="150" width="190" height="8" as="geometry" />
        </mxCell>
        <mxCell id="XL019JOikX7IZcnnbQnU-215" value="&lt;div&gt;+ MakeOrder(): void&lt;/div&gt;&lt;div&gt;&lt;br&gt;&lt;/div&gt;&lt;div&gt;+ ApplyCoupon(): void&lt;br&gt;&lt;/div&gt;&lt;div&gt;&lt;br&gt;&lt;/div&gt;&lt;div&gt;+ selectPaymentMethod(): void&lt;br&gt;&lt;/div&gt;" style="text;html=1;align=left;verticalAlign=middle;resizable=0;points=[];autosize=1;strokeColor=none;fillColor=none;" parent="XL019JOikX7IZcnnbQnU-212" vertex="1">
          <mxGeometry y="158" width="190" height="90" as="geometry" />
        </mxCell>
        <mxCell id="XL019JOikX7IZcnnbQnU-216" value="Cart " style="swimlane;fontStyle=2;align=center;verticalAlign=top;childLayout=stackLayout;horizontal=1;startSize=26;horizontalStack=0;resizeParent=1;resizeLast=0;collapsible=1;marginBottom=0;rounded=0;shadow=0;strokeWidth=1;" parent="WIyWlLk6GJQsqaUBKTNV-1" vertex="1">
          <mxGeometry x="500" y="1130" width="160" height="218" as="geometry">
            <mxRectangle x="230" y="140" width="160" height="26" as="alternateBounds" />
          </mxGeometry>
        </mxCell>
        <mxCell id="XL019JOikX7IZcnnbQnU-217" value="+ menuItems: MenuItem&#xa;&#xa;+ quantity: int&#xa;&#xa;+ totalPrice: int&#xa;" style="text;align=left;verticalAlign=top;spacingLeft=4;spacingRight=4;overflow=hidden;rotatable=0;points=[[0,0.5],[1,0.5]];portConstraint=eastwest;" parent="XL019JOikX7IZcnnbQnU-216" vertex="1">
          <mxGeometry y="26" width="160" height="94" as="geometry" />
        </mxCell>
        <mxCell id="XL019JOikX7IZcnnbQnU-218" value="" style="line;html=1;strokeWidth=1;align=left;verticalAlign=middle;spacingTop=-1;spacingLeft=3;spacingRight=3;rotatable=0;labelPosition=right;points=[];portConstraint=eastwest;" parent="XL019JOikX7IZcnnbQnU-216" vertex="1">
          <mxGeometry y="120" width="160" height="8" as="geometry" />
        </mxCell>
        <mxCell id="XL019JOikX7IZcnnbQnU-219" value="&lt;div&gt;+ addItem(): void&lt;/div&gt;&lt;div&gt;&lt;br&gt;&lt;/div&gt;&lt;div&gt;+ deleteItem(): void&lt;br&gt;&lt;/div&gt;&lt;div&gt;&lt;br&gt;&lt;/div&gt;&lt;div&gt;+ getTotal(): void&lt;/div&gt;" style="text;html=1;align=left;verticalAlign=middle;resizable=0;points=[];autosize=1;strokeColor=none;fillColor=none;" parent="XL019JOikX7IZcnnbQnU-216" vertex="1">
          <mxGeometry y="128" width="160" height="90" as="geometry" />
        </mxCell>
        <mxCell id="XL019JOikX7IZcnnbQnU-223" value="" style="endArrow=none;html=1;rounded=0;entryX=0.5;entryY=0;entryDx=0;entryDy=0;exitX=0.033;exitY=1;exitDx=0;exitDy=0;exitPerimeter=0;" parent="WIyWlLk6GJQsqaUBKTNV-1" source="XL019JOikX7IZcnnbQnU-224" target="XL019JOikX7IZcnnbQnU-216" edge="1">
          <mxGeometry width="50" height="50" relative="1" as="geometry">
            <mxPoint x="350" y="730" as="sourcePoint" />
            <mxPoint x="440" y="1050" as="targetPoint" />
            <Array as="points">
              <mxPoint x="360" y="1080" />
              <mxPoint x="580" y="1080" />
            </Array>
          </mxGeometry>
        </mxCell>
        <mxCell id="XL019JOikX7IZcnnbQnU-224" value="" style="shape=requiredInterface;html=1;verticalLabelPosition=bottom;sketch=0;" parent="WIyWlLk6GJQsqaUBKTNV-1" vertex="1">
          <mxGeometry x="360" y="700" width="10" height="20" as="geometry" />
        </mxCell>
        <mxCell id="XL019JOikX7IZcnnbQnU-225" value="" style="endArrow=none;html=1;rounded=0;entryX=0.5;entryY=1;entryDx=0;entryDy=0;exitX=0.056;exitY=0.022;exitDx=0;exitDy=0;exitPerimeter=0;" parent="WIyWlLk6GJQsqaUBKTNV-1" source="XL019JOikX7IZcnnbQnU-224" target="QisyYEOGhZmKc4R2BYfi-61" edge="1">
          <mxGeometry width="50" height="50" relative="1" as="geometry">
            <mxPoint x="360" y="670" as="sourcePoint" />
            <mxPoint x="390" y="590" as="targetPoint" />
            <Array as="points">
              <mxPoint x="360" y="600" />
              <mxPoint x="520" y="600" />
            </Array>
          </mxGeometry>
        </mxCell>
        <mxCell id="XL019JOikX7IZcnnbQnU-226" value="1" style="resizable=0;align=right;verticalAlign=bottom;labelBackgroundColor=none;fontSize=12;" parent="WIyWlLk6GJQsqaUBKTNV-1" connectable="0" vertex="1">
          <mxGeometry x="594.9999999999998" y="1124.997931034483" as="geometry" />
        </mxCell>
        <mxCell id="XL019JOikX7IZcnnbQnU-228" value="1" style="resizable=0;align=right;verticalAlign=bottom;labelBackgroundColor=none;fontSize=12;" parent="WIyWlLk6GJQsqaUBKTNV-1" connectable="0" vertex="1">
          <mxGeometry x="534.9999999999998" y="579.9979310344829" as="geometry" />
        </mxCell>
        <mxCell id="XL019JOikX7IZcnnbQnU-229" value="" style="endArrow=none;html=1;rounded=0;exitX=0.067;exitY=1.033;exitDx=0;exitDy=0;exitPerimeter=0;entryX=1;entryY=0.5;entryDx=0;entryDy=0;" parent="WIyWlLk6GJQsqaUBKTNV-1" source="XL019JOikX7IZcnnbQnU-114" target="XL019JOikX7IZcnnbQnU-98" edge="1">
          <mxGeometry width="50" height="50" relative="1" as="geometry">
            <mxPoint x="1840" y="980" as="sourcePoint" />
            <mxPoint x="2230" y="130" as="targetPoint" />
            <Array as="points">
              <mxPoint x="1840" y="1000" />
              <mxPoint x="2230" y="1000" />
              <mxPoint x="2230" y="148" />
            </Array>
          </mxGeometry>
        </mxCell>
        <mxCell id="XL019JOikX7IZcnnbQnU-230" value="" style="endArrow=diamondThin;endFill=0;endSize=24;html=1;rounded=0;entryX=1;entryY=0.5;entryDx=0;entryDy=0;exitX=0;exitY=0.5;exitDx=0;exitDy=0;" parent="WIyWlLk6GJQsqaUBKTNV-1" source="XL019JOikX7IZcnnbQnU-175" target="XL019JOikX7IZcnnbQnU-217" edge="1">
          <mxGeometry width="160" relative="1" as="geometry">
            <mxPoint x="680" y="1360" as="sourcePoint" />
            <mxPoint x="840" y="1360" as="targetPoint" />
            <Array as="points">
              <mxPoint x="1320" y="1203" />
              <mxPoint x="1320" y="1440" />
              <mxPoint x="750" y="1440" />
              <mxPoint x="750" y="1203" />
            </Array>
          </mxGeometry>
        </mxCell>
        <mxCell id="XL019JOikX7IZcnnbQnU-231" value="1" style="resizable=0;align=right;verticalAlign=bottom;labelBackgroundColor=none;fontSize=12;" parent="WIyWlLk6GJQsqaUBKTNV-1" connectable="0" vertex="1">
          <mxGeometry x="830" y="779.9994117647059" as="geometry">
            <mxPoint x="-126" y="418" as="offset" />
          </mxGeometry>
        </mxCell>
        <mxCell id="XL019JOikX7IZcnnbQnU-232" value="0..1" style="resizable=0;align=left;verticalAlign=bottom;labelBackgroundColor=none;fontSize=12;" parent="WIyWlLk6GJQsqaUBKTNV-1" connectable="0" vertex="1">
          <mxGeometry x="1330" y="1195" as="geometry" />
        </mxCell>
        <mxCell id="XL019JOikX7IZcnnbQnU-233" value="" style="endArrow=none;html=1;rounded=0;exitX=0.5;exitY=0;exitDx=0;exitDy=0;entryX=0.052;entryY=0.982;entryDx=0;entryDy=0;entryPerimeter=0;" parent="WIyWlLk6GJQsqaUBKTNV-1" source="XL019JOikX7IZcnnbQnU-212" target="XL019JOikX7IZcnnbQnU-234" edge="1">
          <mxGeometry width="50" height="50" relative="1" as="geometry">
            <mxPoint x="1000" y="1100" as="sourcePoint" />
            <mxPoint x="1010" y="1040" as="targetPoint" />
          </mxGeometry>
        </mxCell>
        <mxCell id="XL019JOikX7IZcnnbQnU-234" value="" style="shape=requiredInterface;html=1;verticalLabelPosition=bottom;sketch=0;" parent="WIyWlLk6GJQsqaUBKTNV-1" vertex="1">
          <mxGeometry x="1010" y="1020" width="10" height="20" as="geometry" />
        </mxCell>
        <mxCell id="XL019JOikX7IZcnnbQnU-235" value="" style="endArrow=none;html=1;rounded=0;entryX=0.052;entryY=0.006;entryDx=0;entryDy=0;entryPerimeter=0;exitX=0.067;exitY=1;exitDx=0;exitDy=0;exitPerimeter=0;" parent="WIyWlLk6GJQsqaUBKTNV-1" source="XL019JOikX7IZcnnbQnU-237" target="XL019JOikX7IZcnnbQnU-234" edge="1">
          <mxGeometry width="50" height="50" relative="1" as="geometry">
            <mxPoint x="1011" y="970" as="sourcePoint" />
            <mxPoint x="1020" y="980" as="targetPoint" />
          </mxGeometry>
        </mxCell>
        <mxCell id="XL019JOikX7IZcnnbQnU-236" value="" style="endArrow=none;html=1;rounded=0;exitX=0.1;exitY=-0.017;exitDx=0;exitDy=0;exitPerimeter=0;entryX=0.1;entryY=0.994;entryDx=0;entryDy=0;entryPerimeter=0;" parent="WIyWlLk6GJQsqaUBKTNV-1" source="XL019JOikX7IZcnnbQnU-237" target="XL019JOikX7IZcnnbQnU-240" edge="1">
          <mxGeometry width="50" height="50" relative="1" as="geometry">
            <mxPoint x="1010" y="936" as="sourcePoint" />
            <mxPoint x="630" y="680" as="targetPoint" />
            <Array as="points">
              <mxPoint x="600" y="950" />
            </Array>
          </mxGeometry>
        </mxCell>
        <mxCell id="XL019JOikX7IZcnnbQnU-237" value="" style="shape=requiredInterface;html=1;verticalLabelPosition=bottom;sketch=0;" parent="WIyWlLk6GJQsqaUBKTNV-1" vertex="1">
          <mxGeometry x="1010" y="950" width="10" height="20" as="geometry" />
        </mxCell>
        <mxCell id="XL019JOikX7IZcnnbQnU-239" value="" style="endArrow=none;html=1;rounded=0;entryX=0.75;entryY=1;entryDx=0;entryDy=0;exitX=0.1;exitY=0.017;exitDx=0;exitDy=0;exitPerimeter=0;" parent="WIyWlLk6GJQsqaUBKTNV-1" source="XL019JOikX7IZcnnbQnU-240" target="QisyYEOGhZmKc4R2BYfi-61" edge="1">
          <mxGeometry width="50" height="50" relative="1" as="geometry">
            <mxPoint x="630" y="650" as="sourcePoint" />
            <mxPoint x="610" y="620" as="targetPoint" />
            <Array as="points">
              <mxPoint x="600" y="600" />
              <mxPoint x="560" y="600" />
            </Array>
          </mxGeometry>
        </mxCell>
        <mxCell id="XL019JOikX7IZcnnbQnU-240" value="" style="shape=requiredInterface;html=1;verticalLabelPosition=bottom;sketch=0;" parent="WIyWlLk6GJQsqaUBKTNV-1" vertex="1">
          <mxGeometry x="600" y="700" width="10" height="20" as="geometry" />
        </mxCell>
        <mxCell id="XL019JOikX7IZcnnbQnU-241" value="1" style="resizable=0;align=right;verticalAlign=bottom;labelBackgroundColor=none;fontSize=12;" parent="WIyWlLk6GJQsqaUBKTNV-1" connectable="0" vertex="1">
          <mxGeometry x="579.9999999999998" y="579.9979310344829" as="geometry" />
        </mxCell>
        <mxCell id="XL019JOikX7IZcnnbQnU-242" value="1" style="resizable=0;align=right;verticalAlign=bottom;labelBackgroundColor=none;fontSize=12;" parent="WIyWlLk6GJQsqaUBKTNV-1" connectable="0" vertex="1">
          <mxGeometry x="1027.9999999999998" y="1113.997931034483" as="geometry" />
        </mxCell>
        <mxCell id="XL019JOikX7IZcnnbQnU-243" value="" style="endArrow=none;html=1;rounded=0;entryX=0;entryY=0.5;entryDx=0;entryDy=0;exitX=0.06;exitY=-0.027;exitDx=0;exitDy=0;exitPerimeter=0;" parent="WIyWlLk6GJQsqaUBKTNV-1" source="XL019JOikX7IZcnnbQnU-246" target="XL019JOikX7IZcnnbQnU-209" edge="1">
          <mxGeometry width="50" height="50" relative="1" as="geometry">
            <mxPoint x="180" y="640" as="sourcePoint" />
            <mxPoint x="1810" y="1245.6" as="targetPoint" />
            <Array as="points">
              <mxPoint x="50" y="640" />
              <mxPoint x="50" y="1480" />
              <mxPoint x="1710" y="1480" />
              <mxPoint x="1710" y="1200" />
            </Array>
          </mxGeometry>
        </mxCell>
        <mxCell id="XL019JOikX7IZcnnbQnU-244" value="" style="endArrow=none;html=1;rounded=0;entryX=0;entryY=0.5;entryDx=0;entryDy=0;exitX=0;exitY=0.961;exitDx=0;exitDy=0;exitPerimeter=0;" parent="WIyWlLk6GJQsqaUBKTNV-1" source="XL019JOikX7IZcnnbQnU-246" target="QisyYEOGhZmKc4R2BYfi-66" edge="1">
          <mxGeometry width="50" height="50" relative="1" as="geometry">
            <mxPoint x="240" y="640" as="sourcePoint" />
            <mxPoint x="340" y="590" as="targetPoint" />
            <Array as="points">
              <mxPoint x="320" y="640" />
              <mxPoint x="320" y="530" />
            </Array>
          </mxGeometry>
        </mxCell>
        <mxCell id="XL019JOikX7IZcnnbQnU-246" value="" style="shape=requiredInterface;html=1;verticalLabelPosition=bottom;sketch=0;direction=north;" parent="WIyWlLk6GJQsqaUBKTNV-1" vertex="1">
          <mxGeometry x="187" y="630" width="20" height="10" as="geometry" />
        </mxCell>
        <mxCell id="XL019JOikX7IZcnnbQnU-247" value="1" style="resizable=0;align=right;verticalAlign=bottom;labelBackgroundColor=none;fontSize=12;" parent="WIyWlLk6GJQsqaUBKTNV-1" connectable="0" vertex="1">
          <mxGeometry x="1049.9999999999998" y="1129.997931034483" as="geometry">
            <mxPoint x="786" y="67" as="offset" />
          </mxGeometry>
        </mxCell>
        <mxCell id="XL019JOikX7IZcnnbQnU-248" value="1" style="resizable=0;align=right;verticalAlign=bottom;labelBackgroundColor=none;fontSize=12;" parent="WIyWlLk6GJQsqaUBKTNV-1" connectable="0" vertex="1">
          <mxGeometry x="1051.9999999999998" y="1144.997931034483" as="geometry">
            <mxPoint x="-623" y="-623" as="offset" />
          </mxGeometry>
        </mxCell>
        <mxCell id="XL019JOikX7IZcnnbQnU-250" value="" style="endArrow=none;html=1;rounded=0;exitX=0.03;exitY=0.922;exitDx=0;exitDy=0;exitPerimeter=0;entryX=0.53;entryY=1.077;entryDx=0;entryDy=0;entryPerimeter=0;" parent="WIyWlLk6GJQsqaUBKTNV-1" source="XL019JOikX7IZcnnbQnU-251" target="XL019JOikX7IZcnnbQnU-211" edge="1">
          <mxGeometry width="50" height="50" relative="1" as="geometry">
            <mxPoint x="790" y="1320" as="sourcePoint" />
            <mxPoint x="1978.4615384615386" y="1370" as="targetPoint" />
            <Array as="points">
              <mxPoint x="1935" y="1460" />
            </Array>
          </mxGeometry>
        </mxCell>
        <mxCell id="XL019JOikX7IZcnnbQnU-251" value="" style="shape=requiredInterface;html=1;verticalLabelPosition=bottom;sketch=0;direction=north;" parent="WIyWlLk6GJQsqaUBKTNV-1" vertex="1">
          <mxGeometry x="1700" y="1450" width="20" height="10" as="geometry" />
        </mxCell>
        <mxCell id="XL019JOikX7IZcnnbQnU-252" value="" style="endArrow=none;html=1;rounded=0;entryX=0.024;entryY=-0.007;entryDx=0;entryDy=0;entryPerimeter=0;exitX=0.5;exitY=1;exitDx=0;exitDy=0;" parent="WIyWlLk6GJQsqaUBKTNV-1" source="QisyYEOGhZmKc4R2BYfi-34" target="XL019JOikX7IZcnnbQnU-251" edge="1">
          <mxGeometry width="50" height="50" relative="1" as="geometry">
            <mxPoint x="180" y="850" as="sourcePoint" />
            <mxPoint x="710" y="1340" as="targetPoint" />
            <Array as="points">
              <mxPoint x="197" y="1342" />
              <mxPoint x="197" y="1460" />
            </Array>
          </mxGeometry>
        </mxCell>
        <mxCell id="XL019JOikX7IZcnnbQnU-253" value="1" style="resizable=0;align=right;verticalAlign=bottom;labelBackgroundColor=none;fontSize=12;" parent="WIyWlLk6GJQsqaUBKTNV-1" connectable="0" vertex="1">
          <mxGeometry x="215.99999999999977" y="853.9979310344829" as="geometry" />
        </mxCell>
        <mxCell id="XL019JOikX7IZcnnbQnU-254" value="0..1" style="resizable=0;align=left;verticalAlign=bottom;labelBackgroundColor=none;fontSize=12;" parent="WIyWlLk6GJQsqaUBKTNV-1" connectable="0" vertex="1">
          <mxGeometry x="1900" y="1350" as="geometry" />
        </mxCell>
        <mxCell id="XL019JOikX7IZcnnbQnU-255" value="Discount " style="swimlane;fontStyle=2;align=center;verticalAlign=top;childLayout=stackLayout;horizontal=1;startSize=26;horizontalStack=0;resizeParent=1;resizeLast=0;collapsible=1;marginBottom=0;rounded=0;shadow=0;strokeWidth=1;" parent="WIyWlLk6GJQsqaUBKTNV-1" vertex="1">
          <mxGeometry x="2145" y="1120" width="170" height="240" as="geometry">
            <mxRectangle x="230" y="140" width="160" height="26" as="alternateBounds" />
          </mxGeometry>
        </mxCell>
        <mxCell id="XL019JOikX7IZcnnbQnU-256" value="+ DiscountID: int&#xa;&#xa;+ MenuItemID: int&#xa;&#xa;+ startDate: date&#xa;&#xa;+ endDate: date&#xa;" style="text;align=left;verticalAlign=top;spacingLeft=4;spacingRight=4;overflow=hidden;rotatable=0;points=[[0,0.5],[1,0.5]];portConstraint=eastwest;" parent="XL019JOikX7IZcnnbQnU-255" vertex="1">
          <mxGeometry y="26" width="170" height="114" as="geometry" />
        </mxCell>
        <mxCell id="XL019JOikX7IZcnnbQnU-257" value="" style="line;html=1;strokeWidth=1;align=left;verticalAlign=middle;spacingTop=-1;spacingLeft=3;spacingRight=3;rotatable=0;labelPosition=right;points=[];portConstraint=eastwest;" parent="XL019JOikX7IZcnnbQnU-255" vertex="1">
          <mxGeometry y="140" width="170" height="8" as="geometry" />
        </mxCell>
        <mxCell id="XL019JOikX7IZcnnbQnU-258" value="+ validateDate(): void" style="text;html=1;align=left;verticalAlign=middle;resizable=0;points=[];autosize=1;strokeColor=none;fillColor=none;" parent="XL019JOikX7IZcnnbQnU-255" vertex="1">
          <mxGeometry y="148" width="170" height="30" as="geometry" />
        </mxCell>
        <mxCell id="-lNCkKEobsRtoBRWLsPM-3" value="+ isDiscountAvailable(): bool" style="text;html=1;align=left;verticalAlign=middle;resizable=0;points=[];autosize=1;strokeColor=none;fillColor=none;" parent="XL019JOikX7IZcnnbQnU-255" vertex="1">
          <mxGeometry y="178" width="170" height="30" as="geometry" />
        </mxCell>
        <mxCell id="XL019JOikX7IZcnnbQnU-259" value="" style="endArrow=none;html=1;rounded=0;entryX=0.5;entryY=0;entryDx=0;entryDy=0;exitX=0.75;exitY=0;exitDx=0;exitDy=0;" parent="WIyWlLk6GJQsqaUBKTNV-1" source="XL019JOikX7IZcnnbQnU-174" target="XL019JOikX7IZcnnbQnU-255" edge="1">
          <mxGeometry width="50" height="50" relative="1" as="geometry">
            <mxPoint x="1500" y="1080" as="sourcePoint" />
            <mxPoint x="2140" y="1070" as="targetPoint" />
            <Array as="points">
              <mxPoint x="1480" y="1080" />
              <mxPoint x="2230" y="1080" />
            </Array>
          </mxGeometry>
        </mxCell>
        <mxCell id="XL019JOikX7IZcnnbQnU-260" value="1" style="resizable=0;align=right;verticalAlign=bottom;labelBackgroundColor=none;fontSize=12;" parent="WIyWlLk6GJQsqaUBKTNV-1" connectable="0" vertex="1">
          <mxGeometry x="1434.9999999999998" y="1048.997931034483" as="geometry">
            <mxPoint x="786" y="67" as="offset" />
          </mxGeometry>
        </mxCell>
        <mxCell id="XL019JOikX7IZcnnbQnU-261" value="0..1" style="resizable=0;align=left;verticalAlign=bottom;labelBackgroundColor=none;fontSize=12;" parent="WIyWlLk6GJQsqaUBKTNV-1" connectable="0" vertex="1">
          <mxGeometry x="1489" y="1117" as="geometry" />
        </mxCell>
        <mxCell id="XL019JOikX7IZcnnbQnU-262" value="" style="endArrow=none;html=1;rounded=0;entryX=0.5;entryY=1;entryDx=0;entryDy=0;exitX=0.05;exitY=0.925;exitDx=0;exitDy=0;exitPerimeter=0;" parent="WIyWlLk6GJQsqaUBKTNV-1" source="XL019JOikX7IZcnnbQnU-263" target="XL019JOikX7IZcnnbQnU-255" edge="1">
          <mxGeometry width="50" height="50" relative="1" as="geometry">
            <mxPoint x="60" y="1535" as="sourcePoint" />
            <mxPoint x="2060" y="1530" as="targetPoint" />
            <Array as="points">
              <mxPoint x="130" y="1560" />
              <mxPoint x="2230" y="1550" />
            </Array>
          </mxGeometry>
        </mxCell>
        <mxCell id="XL019JOikX7IZcnnbQnU-263" value="" style="shape=requiredInterface;html=1;verticalLabelPosition=bottom;sketch=0;" parent="WIyWlLk6GJQsqaUBKTNV-1" vertex="1">
          <mxGeometry x="130" y="1470" width="10" height="20" as="geometry" />
        </mxCell>
        <mxCell id="XL019JOikX7IZcnnbQnU-264" value="" style="endArrow=none;html=1;rounded=0;exitX=0.1;exitY=-0.05;exitDx=0;exitDy=0;exitPerimeter=0;entryX=0.081;entryY=1.167;entryDx=0;entryDy=0;entryPerimeter=0;" parent="WIyWlLk6GJQsqaUBKTNV-1" source="XL019JOikX7IZcnnbQnU-263" target="XL019JOikX7IZcnnbQnU-81" edge="1">
          <mxGeometry width="50" height="50" relative="1" as="geometry">
            <mxPoint x="100" y="1450" as="sourcePoint" />
            <mxPoint x="150" y="1400" as="targetPoint" />
          </mxGeometry>
        </mxCell>
        <mxCell id="XL019JOikX7IZcnnbQnU-265" value="0..1" style="resizable=0;align=left;verticalAlign=bottom;labelBackgroundColor=none;fontSize=12;" parent="WIyWlLk6GJQsqaUBKTNV-1" connectable="0" vertex="1">
          <mxGeometry x="1320" y="1240" as="geometry">
            <mxPoint x="917" y="148" as="offset" />
          </mxGeometry>
        </mxCell>
        <mxCell id="XL019JOikX7IZcnnbQnU-266" value="1" style="resizable=0;align=right;verticalAlign=bottom;labelBackgroundColor=none;fontSize=12;" parent="WIyWlLk6GJQsqaUBKTNV-1" connectable="0" vertex="1">
          <mxGeometry x="-640.0000000000002" y="784.9979310344829" as="geometry">
            <mxPoint x="786" y="67" as="offset" />
          </mxGeometry>
        </mxCell>
        <mxCell id="GFZbav0f2nHTLZzMXN7z-0" value="Person" style="swimlane;fontStyle=1;align=center;verticalAlign=top;childLayout=stackLayout;horizontal=1;startSize=26;horizontalStack=0;resizeParent=1;resizeParentMax=0;resizeLast=0;collapsible=1;marginBottom=0;whiteSpace=wrap;html=1;" vertex="1" parent="WIyWlLk6GJQsqaUBKTNV-1">
          <mxGeometry x="230" y="95" width="160" height="180" as="geometry" />
        </mxCell>
        <mxCell id="GFZbav0f2nHTLZzMXN7z-1" value="&lt;div&gt;# Name: string&lt;/div&gt;&lt;div&gt;&lt;br&gt;&lt;/div&gt;&lt;div&gt;# Age: int&lt;/div&gt;&lt;div&gt;&lt;br&gt;&lt;/div&gt;&lt;div&gt;# Phone: string&lt;/div&gt;&lt;div&gt;&lt;br&gt;&lt;/div&gt;&lt;div&gt;# Address: string&lt;br&gt;&lt;/div&gt;" style="text;strokeColor=none;fillColor=none;align=left;verticalAlign=top;spacingLeft=4;spacingRight=4;overflow=hidden;rotatable=0;points=[[0,0.5],[1,0.5]];portConstraint=eastwest;whiteSpace=wrap;html=1;" vertex="1" parent="GFZbav0f2nHTLZzMXN7z-0">
          <mxGeometry y="26" width="160" height="114" as="geometry" />
        </mxCell>
        <mxCell id="GFZbav0f2nHTLZzMXN7z-2" value="" style="line;strokeWidth=1;fillColor=none;align=left;verticalAlign=middle;spacingTop=-1;spacingLeft=3;spacingRight=3;rotatable=0;labelPosition=right;points=[];portConstraint=eastwest;strokeColor=inherit;" vertex="1" parent="GFZbav0f2nHTLZzMXN7z-0">
          <mxGeometry y="140" width="160" height="8" as="geometry" />
        </mxCell>
        <mxCell id="GFZbav0f2nHTLZzMXN7z-3" value="+ getInfo(): Array" style="text;strokeColor=none;fillColor=none;align=left;verticalAlign=top;spacingLeft=4;spacingRight=4;overflow=hidden;rotatable=0;points=[[0,0.5],[1,0.5]];portConstraint=eastwest;whiteSpace=wrap;html=1;" vertex="1" parent="GFZbav0f2nHTLZzMXN7z-0">
          <mxGeometry y="148" width="160" height="32" as="geometry" />
        </mxCell>
        <mxCell id="GFZbav0f2nHTLZzMXN7z-5" value="" style="endArrow=block;endSize=10;endFill=0;shadow=0;strokeWidth=1;rounded=0;curved=0;edgeStyle=elbowEdgeStyle;elbow=vertical;exitX=0.162;exitY=-0.018;exitDx=0;exitDy=0;entryX=0.75;entryY=0;entryDx=0;entryDy=0;exitPerimeter=0;" edge="1" parent="WIyWlLk6GJQsqaUBKTNV-1" source="QisyYEOGhZmKc4R2BYfi-0" target="XL019JOikX7IZcnnbQnU-8">
          <mxGeometry width="160" relative="1" as="geometry">
            <mxPoint x="530" y="455" as="sourcePoint" />
            <mxPoint x="328" y="285" as="targetPoint" />
            <Array as="points">
              <mxPoint x="580" y="40" />
            </Array>
          </mxGeometry>
        </mxCell>
        <mxCell id="GFZbav0f2nHTLZzMXN7z-15" value="0..1" style="resizable=0;align=left;verticalAlign=bottom;labelBackgroundColor=none;fontSize=12;" connectable="0" vertex="1" parent="WIyWlLk6GJQsqaUBKTNV-1">
          <mxGeometry x="1140" y="470" as="geometry" />
        </mxCell>
        <mxCell id="GFZbav0f2nHTLZzMXN7z-16" value="&lt;div&gt;Admin&lt;/div&gt;" style="swimlane;fontStyle=1;align=center;verticalAlign=top;childLayout=stackLayout;horizontal=1;startSize=26;horizontalStack=0;resizeParent=1;resizeParentMax=0;resizeLast=0;collapsible=1;marginBottom=0;whiteSpace=wrap;html=1;" vertex="1" parent="WIyWlLk6GJQsqaUBKTNV-1">
          <mxGeometry x="-70" y="140" width="160" height="88" as="geometry" />
        </mxCell>
        <mxCell id="GFZbav0f2nHTLZzMXN7z-19" value="&lt;div&gt;+ addEmployee(): void&lt;/div&gt;&lt;div&gt;&lt;br&gt;&lt;/div&gt;&lt;div&gt;+ deleteEmployee(): void&lt;br&gt;&lt;/div&gt;" style="text;strokeColor=none;fillColor=none;align=left;verticalAlign=top;spacingLeft=4;spacingRight=4;overflow=hidden;rotatable=0;points=[[0,0.5],[1,0.5]];portConstraint=eastwest;whiteSpace=wrap;html=1;" vertex="1" parent="GFZbav0f2nHTLZzMXN7z-16">
          <mxGeometry y="26" width="160" height="62" as="geometry" />
        </mxCell>
        <mxCell id="GFZbav0f2nHTLZzMXN7z-20" value="" style="endArrow=none;html=1;rounded=0;entryX=0.433;entryY=1.077;entryDx=0;entryDy=0;entryPerimeter=0;exitX=0;exitY=0.5;exitDx=0;exitDy=0;" edge="1" parent="WIyWlLk6GJQsqaUBKTNV-1" source="QisyYEOGhZmKc4R2BYfi-2" target="GFZbav0f2nHTLZzMXN7z-19">
          <mxGeometry width="50" height="50" relative="1" as="geometry">
            <mxPoint x="-1" y="540" as="sourcePoint" />
            <mxPoint x="-40" y="330" as="targetPoint" />
            <Array as="points">
              <mxPoint x="-1" y="526" />
            </Array>
          </mxGeometry>
        </mxCell>
        <mxCell id="GFZbav0f2nHTLZzMXN7z-21" value="1" style="resizable=0;align=right;verticalAlign=bottom;labelBackgroundColor=none;fontSize=12;" connectable="0" vertex="1" parent="WIyWlLk6GJQsqaUBKTNV-1">
          <mxGeometry x="290.00000000000045" y="260.0005263157889" as="geometry">
            <mxPoint x="-278" y="-12" as="offset" />
          </mxGeometry>
        </mxCell>
      </root>
    </mxGraphModel>
  </diagram>
</mxfile>
